<svg width="108" height="16" viewBox="0 0 108 16" fill="none" xmlns="http://www.w3.org/2000/svg">
<g clip-path="url(#clip0_12430_45648)">
<g clip-path="url(#clip1_12430_45648)">
<path d="M0 1.01428V2.95703C0 3.28631 0.125363 3.58595 0.359593 3.81974C0.593823 4.05353 0.890735 4.17865 1.22064 4.17865H5.42689V14.9658H7.37331C7.70321 14.9658 8.00012 14.8407 8.23435 14.6069C8.46858 14.3731 8.59395 14.0768 8.59395 13.7442V4.17865H12.7012C13.0311 4.17865 13.328 4.05353 13.5656 3.81974C13.7998 3.58595 13.9219 3.28631 13.9219 2.95703V1.01428H0Z" fill="white"/>
<path d="M28.6421 4.26757L25.739 1.36991C25.5015 1.14271 25.2112 1.02417 24.8977 1.02417H16.3764C16.0531 1.02417 15.7595 1.146 15.5285 1.3765C15.2976 1.60699 15.1755 1.90334 15.1755 2.23262V14.7255H17.0857C17.4189 14.7255 17.7158 14.6003 17.9434 14.3698C18.171 14.1394 18.2898 13.8463 18.2898 13.517V11.5413L22.0474 11.5512L25.6994 15.1963L27.0718 13.8265C27.2928 13.5862 27.4116 13.2964 27.4116 12.9935C27.4116 12.6905 27.2928 12.4008 27.0586 12.1472L25.9501 11.0375L28.6553 8.33746C28.883 8.10038 29.0017 7.80732 29.0017 7.48792V5.12369C29.0017 4.81417 28.883 4.52441 28.6487 4.26757H28.6421ZM25.8743 5.91726V6.70423L24.1324 8.44283L18.2898 8.42636V4.14244H24.106L25.8776 5.91726H25.8743Z" fill="white"/>
<path d="M42.5211 1.01428C42.1912 1.01428 41.8943 1.13941 41.6601 1.3699C41.4258 1.60369 41.3005 1.90004 41.3005 2.23261V9.97067L39.5124 11.7652H35.3853L33.5709 9.94433V2.23261C33.5709 1.90334 33.4455 1.60698 33.2113 1.3699C32.977 1.13612 32.6801 1.01428 32.3502 1.01428H30.4137V10.7544C30.4137 11.0639 30.5325 11.3569 30.7667 11.6105L33.7325 14.5707C33.97 14.7979 34.2637 14.9164 34.5837 14.9164H40.3174C40.6341 14.9164 40.9277 14.7979 41.185 14.5641L44.131 11.6237C44.3521 11.3833 44.4708 11.0902 44.4708 10.7741V1.01428H42.5244H42.5211Z" fill="white"/>
<path d="M50.9104 4.17865H58.7357C59.0656 4.17865 59.3625 4.05353 59.5967 3.81974C59.831 3.58595 59.9563 3.2896 59.9563 2.95703V1.01428H50.1055C49.7855 1.01428 49.4885 1.13612 49.2378 1.37649L46.3446 4.27414C46.107 4.51123 45.9817 4.80758 45.9817 5.13027V10.8992C45.9817 11.2186 46.1038 11.515 46.3446 11.7652L49.6007 15.0152H59.9563V13.0725C59.9563 12.7432 59.831 12.4469 59.5967 12.2098C59.3625 11.976 59.0656 11.8541 58.7357 11.8541H50.9104L49.1487 10.0958V5.93042L50.9104 4.17207V4.17865Z" fill="white"/>
<path d="M75.4585 12.0979L71.3314 7.9687L75.4486 3.86588C75.6663 3.61892 75.7818 3.32916 75.7818 3.02293C75.7818 2.7167 75.6696 2.43681 75.4255 2.16351L74.0498 0.803589L68.4217 6.42109H65.192V2.28864C65.192 1.95936 65.0666 1.66301 64.8324 1.42593C64.5981 1.19214 64.3012 1.0703 63.9713 1.0703H62.0348V14.9198H63.9713C64.2979 14.9198 64.5948 14.7979 64.8291 14.5707C65.0666 14.3403 65.192 14.0406 65.192 13.7113V9.57558H68.4745L74.0795 15.17L75.4585 13.7936C75.6861 13.5467 75.8082 13.2536 75.8082 12.9441C75.8082 12.6346 75.6861 12.3481 75.4585 12.1012V12.0979Z" fill="white"/>
<path d="M89.8917 1.01428C89.5618 1.01428 89.2616 1.13941 89.0307 1.3699C88.7964 1.60369 88.6711 1.90004 88.6711 2.23261V9.97067L86.883 11.7652H82.7559L80.9382 9.94433V2.23261C80.9382 1.90334 80.8128 1.60369 80.5819 1.3732C80.3476 1.13941 80.0507 1.01428 79.7208 1.01428H77.7843V10.7544C77.7843 11.0639 77.9031 11.3569 78.1373 11.6105L81.1031 14.5707C81.3406 14.7979 81.6343 14.9164 81.9543 14.9164H87.688C88.0047 14.9164 88.2983 14.7979 88.5556 14.5641L91.5016 11.6237C91.7227 11.3833 91.8414 11.0902 91.8414 10.7741V1.01428H89.895H89.8917Z" fill="white"/>
<path d="M107.647 4.32024L104.681 1.36003C104.444 1.13282 104.15 1.01428 103.83 1.01428H95.147C94.8105 1.01428 94.507 1.13941 94.2761 1.37649C94.0485 1.61028 93.9264 1.90663 93.9264 2.23261V14.9625H95.8629C96.1928 14.9625 96.4897 14.8374 96.724 14.6036C96.9582 14.3698 97.0836 14.0735 97.0836 13.7409V11.7093L103.863 11.7356C104.183 11.7257 104.477 11.6039 104.714 11.3734L107.66 8.44282C107.881 8.20244 108 7.90939 108 7.59328V5.17637C108 4.86685 107.881 4.57379 107.647 4.32024ZM104.843 5.97981V6.79313L103.055 8.57782L97.0836 8.56136V4.16878H103.025L104.84 5.97981H104.843Z" fill="white"/>
<path d="M105.493 13.7113C105.493 13.0231 106.054 12.4601 106.746 12.4601C107.439 12.4601 108 13.0199 108 13.7113C108 14.4028 107.439 14.9626 106.746 14.9626C106.054 14.9626 105.493 14.4028 105.493 13.7113ZM107.835 13.7113C107.835 13.1088 107.347 12.6247 106.746 12.6247C106.146 12.6247 105.658 13.1121 105.658 13.7113C105.658 14.3106 106.146 14.798 106.746 14.798C107.347 14.798 107.835 14.3106 107.835 13.7113ZM106.215 13.0495H106.789C107.129 13.0495 107.284 13.201 107.284 13.4084C107.284 13.5269 107.245 13.6389 107.109 13.7015V13.708C107.248 13.7574 107.284 13.8628 107.284 13.9748V14.3469H107.047V13.9748C107.047 13.876 106.997 13.8167 106.859 13.8167H106.456V14.3469H106.219V13.0528L106.215 13.0495ZM106.789 13.6191C106.971 13.6191 107.043 13.5599 107.043 13.438C107.043 13.3393 106.987 13.2635 106.77 13.2635H106.453V13.6224H106.789V13.6191Z" fill="white"/>
</g>
</g>
<defs>
<clipPath id="clip0_12430_45648">
<rect width="108" height="16" fill="white"/>
</clipPath>
<clipPath id="clip1_12430_45648">
<rect width="108" height="14.3928" fill="white" transform="translate(0 0.803589)"/>
</clipPath>
</defs>
</svg>
