<svg width="108" height="16" viewBox="0 0 108 16" fill="none" xmlns="http://www.w3.org/2000/svg">
<g clip-path="url(#clip0_12430_45194)">
<g clip-path="url(#clip1_12430_45194)">
<path d="M0 1.01434V2.95709C0 3.28637 0.125363 3.58601 0.359593 3.8198C0.593823 4.05359 0.890735 4.17871 1.22064 4.17871H5.42689V14.9659H7.37331C7.70321 14.9659 8.00012 14.8408 8.23435 14.607C8.46858 14.3732 8.59395 14.0768 8.59395 13.7443V4.17871H12.7012C13.0311 4.17871 13.328 4.05359 13.5656 3.8198C13.7998 3.58601 13.9219 3.28637 13.9219 2.95709V1.01434H0Z" fill="#00CC66"/>
<path d="M28.6421 4.26763L25.739 1.36997C25.5015 1.14277 25.2112 1.02423 24.8977 1.02423H16.3764C16.0531 1.02423 15.7595 1.14606 15.5285 1.37656C15.2976 1.60705 15.1755 1.90341 15.1755 2.23268V14.7255H17.0857C17.4189 14.7255 17.7158 14.6004 17.9434 14.3699C18.171 14.1394 18.2898 13.8464 18.2898 13.5171V11.5414L22.0474 11.5513L25.6994 15.1964L27.0718 13.8266C27.2928 13.5862 27.4116 13.2965 27.4116 12.9935C27.4116 12.6906 27.2928 12.4008 27.0586 12.1473L25.9501 11.0376L28.6553 8.33752C28.883 8.10044 29.0017 7.80738 29.0017 7.48798V5.12375C29.0017 4.81423 28.883 4.52447 28.6487 4.26763H28.6421ZM25.8743 5.91732V6.70429L24.1324 8.44289L18.2898 8.42642V4.1425H24.106L25.8776 5.91732H25.8743Z" fill="#00CC66"/>
<path d="M42.5211 1.01434C42.1912 1.01434 41.8943 1.13947 41.6601 1.36996C41.4258 1.60375 41.3005 1.9001 41.3005 2.23268V9.97073L39.5124 11.7653H35.3853L33.5709 9.94439V2.23268C33.5709 1.9034 33.4455 1.60705 33.2113 1.36996C32.977 1.13618 32.6801 1.01434 32.3502 1.01434H30.4137V10.7544C30.4137 11.0639 30.5325 11.357 30.7667 11.6105L33.7325 14.5708C33.97 14.798 34.2637 14.9165 34.5837 14.9165H40.3174C40.6341 14.9165 40.9277 14.798 41.185 14.5642L44.131 11.6237C44.3521 11.3833 44.4708 11.0903 44.4708 10.7742V1.01434H42.5244H42.5211Z" fill="#00CC66"/>
<path d="M50.9104 4.17871H58.7357C59.0656 4.17871 59.3625 4.05359 59.5967 3.8198C59.831 3.58601 59.9563 3.28966 59.9563 2.95709V1.01434H50.1055C49.7855 1.01434 49.4885 1.13618 49.2378 1.37655L46.3446 4.27421C46.107 4.51129 45.9817 4.80764 45.9817 5.13033V10.8993C45.9817 11.2187 46.1038 11.5151 46.3446 11.7653L49.6007 15.0153H59.9563V13.0725C59.9563 12.7433 59.831 12.4469 59.5967 12.2098C59.3625 11.976 59.0656 11.8542 58.7357 11.8542H50.9104L49.1487 10.0959V5.93048L50.9104 4.17213V4.17871Z" fill="#00CC66"/>
<path d="M75.4585 12.0979L71.3314 7.96873L75.4486 3.86591C75.6663 3.61896 75.7818 3.32919 75.7818 3.02296C75.7818 2.71673 75.6696 2.43684 75.4255 2.16354L74.0498 0.803619L68.4217 6.42112H65.192V2.28867C65.192 1.95939 65.0666 1.66304 64.8324 1.42596C64.5981 1.19217 64.3012 1.07034 63.9713 1.07034H62.0348V14.9198H63.9713C64.2979 14.9198 64.5948 14.798 64.8291 14.5708C65.0666 14.3403 65.192 14.0406 65.192 13.7114V9.57561H68.4745L74.0795 15.1701L75.4585 13.7937C75.6861 13.5467 75.8082 13.2537 75.8082 12.9441C75.8082 12.6346 75.6861 12.3481 75.4585 12.1012V12.0979Z" fill="#00CC66"/>
<path d="M89.8917 1.01434C89.5618 1.01434 89.2616 1.13947 89.0307 1.36996C88.7964 1.60375 88.6711 1.9001 88.6711 2.23268V9.97073L86.883 11.7653H82.7559L80.9382 9.94439V2.23268C80.9382 1.9034 80.8128 1.60375 80.5819 1.37326C80.3476 1.13947 80.0507 1.01434 79.7208 1.01434H77.7843V10.7544C77.7843 11.0639 77.9031 11.357 78.1373 11.6105L81.1031 14.5708C81.3406 14.798 81.6343 14.9165 81.9543 14.9165H87.688C88.0047 14.9165 88.2983 14.798 88.5556 14.5642L91.5016 11.6237C91.7227 11.3833 91.8414 11.0903 91.8414 10.7742V1.01434H89.895H89.8917Z" fill="#00CC66"/>
<path d="M107.647 4.3203L104.681 1.36009C104.444 1.13288 104.15 1.01434 103.83 1.01434H95.147C94.8105 1.01434 94.507 1.13947 94.2761 1.37655C94.0485 1.61034 93.9264 1.90669 93.9264 2.23268V14.9626H95.8629C96.1928 14.9626 96.4897 14.8375 96.724 14.6037C96.9582 14.3699 97.0836 14.0735 97.0836 13.741V11.7093L103.863 11.7357C104.183 11.7258 104.477 11.604 104.714 11.3735L107.66 8.44288C107.881 8.2025 108 7.90945 108 7.59334V5.17643C108 4.86691 107.881 4.57385 107.647 4.3203ZM104.843 5.97987V6.79319L103.055 8.57788L97.0836 8.56142V4.16884H103.025L104.84 5.97987H104.843Z" fill="#00CC66"/>
<path d="M105.493 13.7113C105.493 13.0231 106.054 12.4601 106.746 12.4601C107.439 12.4601 108 13.0199 108 13.7113C108 14.4028 107.439 14.9626 106.746 14.9626C106.054 14.9626 105.493 14.4028 105.493 13.7113ZM107.835 13.7113C107.835 13.1088 107.347 12.6247 106.746 12.6247C106.146 12.6247 105.658 13.1121 105.658 13.7113C105.658 14.3106 106.146 14.798 106.746 14.798C107.347 14.798 107.835 14.3106 107.835 13.7113ZM106.215 13.0495H106.789C107.129 13.0495 107.284 13.201 107.284 13.4084C107.284 13.5269 107.245 13.6389 107.109 13.7015V13.708C107.248 13.7574 107.284 13.8628 107.284 13.9748V14.3469H107.047V13.9748C107.047 13.876 106.997 13.8167 106.859 13.8167H106.456V14.3469H106.219V13.0528L106.215 13.0495ZM106.789 13.6191C106.971 13.6191 107.043 13.5599 107.043 13.438C107.043 13.3393 106.987 13.2635 106.77 13.2635H106.453V13.6224H106.789V13.6191Z" fill="#00CC66"/>
</g>
</g>
<defs>
<clipPath id="clip0_12430_45194">
<rect width="108" height="16" fill="white"/>
</clipPath>
<clipPath id="clip1_12430_45194">
<rect width="108" height="14.3928" fill="white" transform="translate(0 0.803619)"/>
</clipPath>
</defs>
</svg>
