<svg width="16" height="16" viewBox="0 0 16 16" fill="none" xmlns="http://www.w3.org/2000/svg">
  <path d="M14.165 1.01398L8 0L1.835 1.01398C1.60168 1.05301 1.38976 1.17349 1.23688 1.35402C1.084 1.53454 1.00007 1.76342 1 1.99998V8.99998C1 14 8 16 8 16C8 16 15 14 15 8.99998V1.99998C14.9999 1.76342 14.916 1.53454 14.7631 1.35402C14.6102 1.17349 14.3983 1.05301 14.165 1.01398Z" fill="white"/>
  <path fill-rule="evenodd" clip-rule="evenodd" d="M8 0L14.165 1.01398C14.3983 1.05301 14.6102 1.17349 14.7631 1.35402C14.916 1.53454 14.9999 1.76342 15 1.99998V8.99998C15 14 8 16 8 16C8 16 1 14 1 8.99998V1.99998C1.00007 1.76342 1.084 1.53454 1.23688 1.35402C1.38976 1.17349 1.60168 1.05301 1.835 1.01398L8 0ZM8 6H11C11.65 6 12.1 6.6 11.95 7.2L11.45 9.8C11.35 10.5 10.7 11 10 11H4.5C4.2 11 4 10.8 4 10.5V7C4 6.7 4.2 6.5 4.5 6.5H5.5L7 3C7.6 3 8 3.4 8 4V6Z" fill="currentColor"/>
</svg>
