<svg width="12" height="12" viewBox="0 0 12 12" fill="none" xmlns="http://www.w3.org/2000/svg">
<path d="M10 0H9.5C8.94772 0 8.5 0.447715 8.5 1V11C8.5 11.5523 8.94772 12 9.5 12H10C10.5523 12 11 11.5523 11 11V1C11 0.447715 10.5523 0 10 0Z" fill="currentColor"/>
<path d="M6.25 4H5.75C5.19772 4 4.75 4.44772 4.75 5V11C4.75 11.5523 5.19772 12 5.75 12H6.25C6.80228 12 7.25 11.5523 7.25 11V5C7.25 4.44772 6.80228 4 6.25 4Z" fill="currentColor"/>
<path d="M2.5 8H2C1.44772 8 1 8.44772 1 9V11C1 11.5523 1.44772 12 2 12H2.5C3.05228 12 3.5 11.5523 3.5 11V9C3.5 8.44772 3.05228 8 2.5 8Z" fill="currentColor"/>
</svg>
