<svg width="15" height="16" viewBox="0 0 15 16" fill="none" xmlns="http://www.w3.org/2000/svg">
<path d="M2.83333 11.333L0.833328 15.333H14.1667L12.1667 11.333" stroke="#00CC66" stroke-miterlimit="10" stroke-linecap="square"/>
<path d="M12.1667 5.33317C12.1667 8.21317 7.5 12.9165 7.5 12.9165C7.5 12.9165 2.83333 8.21317 2.83333 5.33317C2.83333 2.37984 5.24466 0.666504 7.5 0.666504C9.75533 0.666504 12.1667 2.37984 12.1667 5.33317Z" stroke="#00CC66" stroke-miterlimit="10" stroke-linecap="square"/>
<path d="M7.49999 6.66667C8.23637 6.66667 8.83332 6.06971 8.83332 5.33333C8.83332 4.59695 8.23637 4 7.49999 4C6.76361 4 6.16666 4.59695 6.16666 5.33333C6.16666 6.06971 6.76361 6.66667 7.49999 6.66667Z" stroke="#00CC66" stroke-miterlimit="10" stroke-linecap="round" stroke-linejoin="round"/>
</svg>
