<svg width="12" height="12" viewBox="0 0 12 12" fill="none" xmlns="http://www.w3.org/2000/svg">
<g clip-path="url(#clip0)">
<path d="M10.6237 0.760614L6.12375 0.0106141C6.0418 -0.002887 5.9582 -0.002887 5.87625 0.0106141L1.37625 0.760614C1.20126 0.789889 1.04232 0.88025 0.927658 1.01564C0.813 1.15104 0.750052 1.32269 0.75 1.50011V6.75011C0.75 10.5001 6 12.0001 6 12.0001C6 12.0001 11.25 10.5001 11.25 6.75011V1.50011C11.2499 1.32269 11.187 1.15104 11.0723 1.01564C10.9577 0.88025 10.7987 0.789889 10.6237 0.760614ZM5.29875 8.61086L2.46975 5.78036L3.53025 4.71986L5.19975 6.38936L8.42475 2.51936L9.57675 3.48086L5.29875 8.61086Z" fill="currentColor"/>
</g>
<defs>
<clipPath id="clip0">
<rect width="12" height="12" fill="white"/>
</clipPath>
</defs>
</svg>
