<svg width="48" height="48" viewBox="0 0 48 48" fill="none" xmlns="http://www.w3.org/2000/svg">
<path fill-rule="evenodd" clip-rule="evenodd" d="M12 19C12 17.8954 12.8954 17 14 17H22V19H14V33H34V19H26V17H34C35.1046 17 36 17.8954 36 19V33C36 34.1046 35.1046 35 34 35H14C12.8954 35 12 34.1046 12 33V19Z" fill="#00CC66"/>
<path opacity="0.2" d="M34 33L34 25L14 25L14 33L34 33Z" fill="#00CC66"/>
<path fill-rule="evenodd" clip-rule="evenodd" d="M25.6 21.2C26.0418 21.5314 26.1314 22.1582 25.8 22.6L24 25H28L23.8 30.6C23.4686 31.0418 22.8418 31.1314 22.4 30.8C21.9582 30.4686 21.8686 29.8418 22.2 29.4L24 27H20L24.2 21.4C24.5314 20.9582 25.1582 20.8686 25.6 21.2Z" fill="#00CC66"/>
<path fill-rule="evenodd" clip-rule="evenodd" d="M20 16C20 14.8954 20.8954 14 22 14H26C27.1046 14 28 14.8954 28 16V18H26V16H22V18H20V16Z" fill="#00CC66"/>
<path fill-rule="evenodd" clip-rule="evenodd" d="M16.5 14C17.0523 14 17.5 14.4477 17.5 15V18C17.5 18.5523 17.0523 19 16.5 19C15.9477 19 15.5 18.5523 15.5 18V15C15.5 14.4477 15.9477 14 16.5 14Z" fill="#00CC66"/>
<path fill-rule="evenodd" clip-rule="evenodd" d="M31.5 14C32.0523 14 32.5 14.4477 32.5 15V18C32.5 18.5523 32.0523 19 31.5 19C30.9477 19 30.5 18.5523 30.5 18V15C30.5 14.4477 30.9477 14 31.5 14Z" fill="#00CC66"/>
</svg>
