<svg width="48" height="48" viewBox="0 0 48 48" fill="none" xmlns="http://www.w3.org/2000/svg">
<circle opacity="0.2" cx="29.5" cy="29.5" r="5.5" fill="#00CC66"/>
<path d="M27.305 14.7949C26.9119 14.4017 26.2746 14.4017 25.8814 14.7949C25.5241 15.1523 25.4883 15.8254 25.8814 16.2186C26.2566 16.5938 26.9298 16.5938 27.305 16.2186C27.6981 15.8254 27.6981 15.188 27.305 14.7949Z" fill="#00CC66"/>
<path d="M35.4826 27.1622C35.4825 27.1619 35.4824 27.1617 35.4823 27.1614L29.8464 14.1211C29.8462 14.1207 29.846 14.1203 29.8458 14.12C29.67 13.7126 29.4209 13.346 29.1052 13.0304C27.9079 11.8331 26.0262 11.659 24.631 12.6167C24.629 12.6181 24.627 12.6197 24.6249 12.6211C24.6242 12.6217 24.6234 12.622 24.6227 12.6226L14.131 20.0489C14.1306 20.0492 14.1302 20.0495 14.1298 20.0498C12.796 20.97 12 22.4843 12 24.1033C12 25.8699 12.9549 27.5101 14.492 28.3842C14.4926 28.3846 14.4933 28.3849 14.494 28.3853C14.4942 28.3854 14.4943 28.3855 14.4944 28.3855C14.5092 28.3938 26.5332 35.1669 26.5489 35.1757C27.5203 35.727 28.5985 35.9996 29.6735 35.9996C31.3232 35.9996 32.9369 35.359 34.1486 34.1474C36.0167 32.2791 36.4898 29.4993 35.4826 27.1622ZM25.128 14.034C25.981 13.1809 27.266 13.1891 28.1109 14.034C28.9365 14.8596 28.9609 16.1669 28.1109 17.0169C27.2736 17.8542 25.9271 17.8161 25.128 17.0169C24.3164 16.2053 24.2781 14.884 25.128 14.034ZM13.3968 24.1033C13.3968 22.1789 14.9642 20.5691 16.9215 20.5691C18.8599 20.5691 20.4463 22.1649 20.4463 24.1033C20.4463 26.0416 18.8599 27.6187 16.9215 27.6187C14.9574 27.6187 13.3968 26.0185 13.3968 24.1033ZM18.1965 28.857C20.2942 28.2938 21.8431 26.3762 21.8431 24.1033C21.8431 21.6551 20.0463 19.619 17.7022 19.2439L23.1073 15.4179C23.104 15.5358 23.1059 15.6542 23.1145 15.7728C23.1757 16.6142 23.5377 17.4059 24.1337 18.0018C25.3605 19.2287 27.3012 19.3719 28.6919 18.3561L28.6919 18.356C29.0811 18.0716 29.4213 17.6989 29.6723 17.2627L32.6131 24.0671C30.2757 22.8405 27.2409 23.1576 25.1999 25.1986C23.8793 26.5192 23.2344 28.3251 23.366 30.1352C23.4131 30.7839 23.5598 31.416 23.796 32.0111L18.1965 28.857ZM32.5749 33.6494C30.6432 35.0606 27.9271 34.8859 26.1941 33.153C24.2768 31.2358 24.244 28.1431 26.1941 26.1929C28.1256 24.2614 31.2229 24.2616 33.1542 26.1929C35.2537 28.2925 35.0622 31.8323 32.5749 33.6494Z" fill="#00CC66"/>
<path d="M30.4571 29.0449C30.0665 28.6517 29.4335 28.6517 29.0429 29.0449C28.6524 29.438 28.6524 30.0754 29.0429 30.4686C29.4157 30.8438 30.0843 30.8438 30.4571 30.4686C30.8476 30.0754 30.8476 29.438 30.4571 29.0449Z" fill="#00CC66"/>
<path d="M16.8999 22C15.7971 22 14.8999 22.9012 14.8999 24.0089C14.8999 25.1166 15.7971 26 16.8999 26C18.0027 26 18.8999 25.1166 18.8999 24.0089C18.8999 22.9012 18.0027 22 16.8999 22ZM16.8999 24.6786C16.5323 24.6786 16.2243 24.3782 16.2243 24.0089C16.2243 23.6397 16.5323 23.3393 16.8999 23.3393C17.2675 23.3393 17.5755 23.6397 17.5755 24.0089C17.5755 24.3782 17.2675 24.6786 16.8999 24.6786Z" fill="#00CC66"/>
</svg>
