<svg width="48" height="48" viewBox="0 0 48 48" fill="none" xmlns="http://www.w3.org/2000/svg">
<path opacity="0.2" d="M21.5 17L20 18.5L19.9998 19L28.4998 27.5L29.9998 26V25L21.9998 17H21.5Z" fill="#00CC66"/>
<path d="M33.4436 14.6232L31.7467 16.32L30.0868 14.66C28.5612 13.1345 26.079 13.1345 24.5535 14.66L22.7983 16.4152C21.9259 15.9996 20.8482 16.152 20.1268 16.8734L13.4869 23.5133C12.7655 24.2347 12.6131 25.3124 13.0287 26.1848L11.2367 27.9769C10.9311 28.2824 10.9311 28.7779 11.2367 29.0835L13.45 31.2968C13.7556 31.6024 14.251 31.6024 14.5566 31.2968L16.2535 29.6L17.3602 30.7066L15.6633 32.4035C15.3577 32.7091 15.3577 33.2046 15.6633 33.5102L17.8766 35.7235C18.1822 36.0291 18.6777 36.0291 18.9833 35.7235L20.7753 33.9314C21.6477 34.347 22.7254 34.1946 23.4468 33.4733L30.0868 26.8333C31.0021 25.918 31.0021 24.4286 30.0868 23.5133L26.2134 19.64L27.3201 18.5334L28.9801 20.1933C30.5056 21.7189 32.9879 21.7189 34.5134 20.1933L36.7636 17.9432C36.9104 17.7964 36.9928 17.5973 36.9928 17.3898C36.9928 17.1823 36.9104 16.9833 36.7636 16.8365L34.5503 14.6232C34.2447 14.3176 33.7492 14.3176 33.4436 14.6232ZM19.5735 32.9199L18.4299 34.0635L17.3233 32.9568L18.4668 31.8133L19.5735 32.9199ZM15.1468 28.4933L14.0033 29.6368L12.8966 28.5302L14.0402 27.3866L15.1468 28.4933ZM22.8935 31.8133L22.3401 32.3666C22.035 32.6717 21.5386 32.6717 21.2335 32.3666C19.7102 30.8433 15.9298 27.0629 14.5935 25.7266C14.2884 25.4215 14.2884 24.9251 14.5935 24.62L15.1468 24.0667L22.8935 31.8133ZM27.3201 27.3866L24.0001 30.7066L16.2535 22.96L19.5735 19.64L27.3201 27.3866ZM28.9801 24.62C29.2852 24.9251 29.2852 25.4215 28.9801 25.7266L28.4268 26.28L20.6801 18.5334L21.2335 17.98C21.5386 17.6749 22.035 17.6749 22.3401 17.98L28.9801 24.62ZM35.1036 17.3898L33.4067 19.0867C32.4914 20.002 31.0021 20.002 30.0868 19.0867L27.8734 16.8734C27.5679 16.5678 27.0724 16.5678 26.7668 16.8734L25.1068 18.5334L24.0001 17.4267L25.6601 15.7667C26.5754 14.8514 28.0648 14.8514 28.9801 15.7667L31.1934 17.98C31.499 18.2856 31.9945 18.2856 32.3001 17.98L33.997 16.2831L35.1036 17.3898Z" fill="#00CC66"/>
</svg>
