<svg width="48" height="48" viewBox="0 0 48 48" fill="none" xmlns="http://www.w3.org/2000/svg">
<path d="M23.9999 21.6274C20.4254 21.6274 17.5173 24.4699 17.5173 27.9639C17.5173 31.4578 20.4254 34.3004 23.9999 34.3004C27.5745 34.3004 30.4825 31.4578 30.4825 27.9639C30.4825 24.4699 27.5745 21.6274 23.9999 21.6274ZM23.9999 32.7777C21.2844 32.7777 19.0751 30.6182 19.0751 27.9639C19.0751 25.3096 21.2844 23.1501 23.9999 23.1501C26.7154 23.1501 28.9247 25.3096 28.9247 27.9639C28.9247 30.6182 26.7154 32.7777 23.9999 32.7777Z" fill="#00CC66"/>
<path d="M34 14.3431C34 13.8583 33.607 13.4653 33.1222 13.4653V12C33.1222 11.4477 32.6745 11 32.1222 11H29.8025C29.2502 11 28.8025 11.4477 28.8025 12V13.4653C28.3177 13.4653 27.9246 13.8583 27.9246 14.3432V17.9331C27.9246 18.3503 28.2629 18.6886 28.6802 18.6886V20.1742C27.3065 19.3826 25.7067 18.9277 24.0001 18.9277C22.2934 18.9277 20.6936 19.3826 19.3199 20.1742V18.6886C19.7372 18.6886 20.0755 18.3503 20.0755 17.933V14.4653C20.0755 13.913 19.6276 13.4653 19.0753 13.4653V12C19.0753 11.4477 18.6276 11 18.0753 11H15.7555C15.2032 11 14.7555 11.4477 14.7555 12V13.4653C14.3383 13.4653 14 13.8036 14 14.2208V17.933C14 18.3503 14.3383 18.6886 14.7555 18.6886V27.9639C14.7555 32.9464 18.9026 37 24 37C29.0974 37 33.2445 32.9464 33.2445 27.9639V18.6886C33.6617 18.6886 34 18.3503 34 17.9331V14.3431ZM29.4824 14.988H32.4422V17.1659H29.4824V14.988ZM30.3602 12.5227H31.5643V13.4653H30.3602V12.5227ZM15.5578 14.988H18.5176V17.1659H15.5578V14.988ZM16.3133 12.5227H17.5174V13.4653H16.3133V12.5227ZM16.3133 18.6886H17.7621V21.301C17.2147 21.7911 16.7277 22.3446 16.3133 22.9495V18.6886ZM24 35.4773C19.7615 35.4773 16.3133 32.1068 16.3133 27.9639C16.3133 23.821 19.7615 20.4505 24 20.4505C28.2385 20.4505 31.6867 23.821 31.6867 27.9639C31.6867 32.1068 28.2385 35.4773 24 35.4773ZM31.6867 22.9496C31.2723 22.3446 30.7853 21.7911 30.2379 21.301V18.6886H31.6867V22.9496Z" fill="#00CC66"/>
<path opacity="0.2" fill-rule="evenodd" clip-rule="evenodd" d="M24 37.0001C28.8968 37.0001 32.8665 33.1198 32.8665 28.3334C32.8665 23.5469 28.8968 19.6667 24 19.6667C19.1032 19.6667 15.1335 23.5469 15.1335 28.3334C15.1335 33.1198 19.1032 37.0001 24 37.0001ZM23.9999 33.75C27.0604 33.75 29.5414 31.3249 29.5414 28.3334C29.5414 25.3418 27.0604 22.9167 23.9999 22.9167C20.9394 22.9167 18.4584 25.3418 18.4584 28.3334C18.4584 31.3249 20.9394 33.75 23.9999 33.75Z" fill="#00CC66"/>
</svg>
