<svg width="12" height="12" viewBox="0 0 16 16" fill="none" xmlns="http://www.w3.org/2000/svg">
<path fill-rule="evenodd" clip-rule="evenodd" d="M3.55544 1.34824C4.87103 0.469192 6.41775 0 8 0C10.121 0.00254057 12.1543 0.846211 13.654 2.34595C15.1538 3.84569 15.9975 5.87905 16 8C16 9.58225 15.5308 11.129 14.6518 12.4446C13.7727 13.7602 12.5233 14.7855 11.0615 15.391C9.59966 15.9965 7.99113 16.155 6.43928 15.8463C4.88743 15.5376 3.46197 14.7757 2.34315 13.6569C1.22433 12.538 0.462403 11.1126 0.153721 9.56072C-0.15496 8.00887 0.00346627 6.40034 0.608967 4.93853C1.21447 3.47672 2.23985 2.22729 3.55544 1.34824ZM7.19997 3.20001H8.79997V7.19999H12.8001V8.79999H8.79997V8.80001H7.19997V3.20001Z" fill="#00CC66"/>
</svg>
