<svg width="128" height="128" viewBox="0 0 128 128" fill="none" xmlns="http://www.w3.org/2000/svg">
<path d="M52.8751 78.1933C58.101 78.1933 62.3375 73.9569 62.3375 68.7309C62.3375 63.505 58.101 59.2686 52.8751 59.2686C47.6492 59.2686 43.4127 63.505 43.4127 68.7309C43.4127 73.9569 47.6492 78.1933 52.8751 78.1933Z" stroke="#00CC66" stroke-width="4" stroke-miterlimit="10" stroke-linecap="round" stroke-linejoin="round"/>
<path d="M71.7989 103.999V94.5904C71.8004 93.492 71.5152 92.4123 70.9714 91.458C70.4276 90.5038 69.6441 89.708 68.6983 89.1495C63.8846 86.3963 58.4189 84.9887 52.8741 85.0744C47.3193 84.9665 41.8397 86.3708 37.0215 89.1369C36.0838 89.6973 35.3077 90.4916 34.7691 91.442C34.2306 92.3925 33.9481 93.4664 33.9493 94.5588V103.999" stroke="#00CC66" stroke-width="4" stroke-miterlimit="10" stroke-linecap="round" stroke-linejoin="round"/>
<path d="M66.4947 37.7639H21.3334V104.001H96.0001V58.8388" stroke="#00CC66" stroke-width="4" stroke-miterlimit="10" stroke-linecap="round" stroke-linejoin="round"/>
<path d="M66.6382 33.4624V49.233C66.6382 51.7426 67.6351 54.1494 69.4096 55.9239C71.1842 57.6985 73.591 58.6954 76.1006 58.6954V68.1578L91.8712 58.6954H101.334C103.843 58.6954 106.25 57.6985 108.024 55.9239C109.799 54.1494 110.796 51.7426 110.796 49.233V33.4624C110.796 30.9528 109.799 28.546 108.024 26.7715C106.25 24.9969 103.843 24 101.334 24H76.1006C73.591 24 71.1842 24.9969 69.4096 26.7715C67.6351 28.546 66.6382 30.9528 66.6382 33.4624Z" fill="#00CC66" fill-opacity="0.2" stroke="#00CC66" stroke-width="4" stroke-miterlimit="10" stroke-linecap="round" stroke-linejoin="round"/>
</svg>
