<svg width="48" height="48" viewBox="0 0 48 48" fill="none" xmlns="http://www.w3.org/2000/svg">
<rect opacity="0.2" x="11" y="28" width="21" height="8" rx="1" fill="#00CC66"/>
<path fill-rule="evenodd" clip-rule="evenodd" d="M14.1816 12C13.6294 12 13.1816 12.4477 13.1816 13C13.1816 13.5523 13.6294 14 14.1816 14H17.5454V15.2C17.5454 15.7523 17.9931 16.2 18.5454 16.2C19.0977 16.2 19.5454 15.7523 19.5454 15.2V14H22.9089C23.4612 14 23.9089 13.5523 23.9089 13C23.9089 12.4477 23.4612 12 22.9089 12H18.5454H14.1816ZM11 19.6C11 19.0477 11.4477 18.6 12 18.6H25.0909C25.4071 18.6 25.7046 18.7495 25.8933 19.0032L28.8661 23H31.6364C32.1886 23 32.6364 23.4477 32.6364 24V28.5H35V26.2001C35 25.6478 35.4477 25.2001 36 25.2001C36.5523 25.2001 37 25.6478 37 26.2001V32.8001C37 33.3524 36.5523 33.8001 36 33.8001C35.4477 33.8001 35 33.3524 35 32.8001V30.5H32.6364V35C32.6364 35.5523 32.1886 36 31.6364 36H12C11.4477 36 11 35.5523 11 35V19.6ZM30.6364 25V29.4835L30.6362 29.5L30.6364 29.5165V34H13V20.6H24.5884L27.5613 24.5968C27.7499 24.8505 28.0475 25 28.3636 25H30.6364Z" fill="#00CC66"/>
</svg>
