<svg width="83" height="83" fill="none" xmlns="http://www.w3.org/2000/svg"><path fill="#0C6" d="M0 0h83v83H0z"/><path d="m24.967 12.482 8.136.818.037.004c6.46.795 11.378 5.827 12.301 11.985l.006.047 9.467-.076c4.859 0 8.795 3.946 8.795 8.81 0 .286-.014.573-.042.858l-.028.247-2.922 22.07a8.8 8.8 0 0 1-8.712 7.605l-9.46-.01-3.536-.008a5.046 5.046 0 0 0 1.429-3.525 5.042 5.042 0 0 0-1.213-3.288l9.444.017h3.336c.979 0 1.81-.717 1.96-1.685l2.92-22.046.007-.073.005-.08.002-.083c0-1.081-.855-1.96-1.92-1.995h-.056l-12.6.1a3.573 3.573 0 0 1-3.592-3.838l.026-.266c.353-3.925-2.434-7.445-6.328-7.988l-.094-.012-1.45-.146-4.892 27.657a3.405 3.405 0 0 1-3.724 2.958l-.084-.01a3.406 3.406 0 0 1-2.957-3.726l.01-.083 5.73-34.238Z" fill="#fff"/><path d="m41.17 58.02 8.58.014c.23.962.353 1.967.353 3 0 1.327-.202 2.607-.577 3.811l-5.482-.006-2.922-.005a5.333 5.333 0 0 0 1.248-3.437c0-1.28-.45-2.456-1.2-3.377Z" fill="#000" fill-opacity=".1"/><path fill-rule="evenodd" clip-rule="evenodd" d="M37.015 52.45c4.965 0 8.99 4.026 8.99 8.993 0 4.967-4.026 8.993-8.99 8.993-4.965 0-8.99-4.026-8.99-8.993 0-4.967 4.025-8.993 8.99-8.993Zm-.136 5.45a3.406 3.406 0 1 0 .001 6.812 3.406 3.406 0 0 0-.001-6.812Z" fill="#fff"/></svg>