<svg width="85" height="27" viewBox="0 0 85 27" fill="none" xmlns="http://www.w3.org/2000/svg">
<path d="M4.41658 22.5422L5.66762 12.4138H8.41614L8.71942 9.96184H0.303284L0 12.4138H2.74851L1.49747 22.5422H4.41658ZM13.4404 13.9227C13.8628 13.9227 14.2199 13.9715 14.4964 14.0388L14.5588 14.0547L14.028 16.5821L13.9346 16.5376C13.6725 16.4184 13.3056 16.2992 12.8338 16.2992C12.1514 16.2992 11.6965 16.5632 11.4311 16.8084C10.9736 17.2455 10.7458 17.999 10.6282 18.8653L10.1611 22.5422H7.43158L8.47412 14.1301H11.2037C11.4817 14.3691 11.7534 14.4131 12.0188 14.2622C12.5495 13.9793 13.1371 13.9227 13.4404 13.9227ZM22.3884 21.75C23.2888 20.89 23.4878 19.7916 23.6029 18.8268L24.1512 14.1301H21.4217L20.8909 18.5436C20.7772 19.5433 20.455 19.9394 20.3412 20.0525C20.0379 20.3732 19.5261 20.5241 19.0902 20.5241C18.6921 20.5241 18.2182 20.392 17.9718 20.1657C17.7823 19.9959 17.6117 19.6942 17.6117 19.2415L17.6125 19.1876L17.6168 19.1052C17.629 18.936 17.6619 18.7306 17.7064 18.3173L18.1993 14.1301H15.4697L14.9579 18.4116C14.92 18.6757 14.8632 19.2604 14.8632 19.5999C14.8632 20.4863 15.2044 21.3351 15.773 21.8632C16.6777 22.7274 18.0832 22.8182 18.951 22.8247L19.0712 22.8251C20.0379 22.8251 21.3838 22.7119 22.3884 21.75ZM29.1755 22.8251L29.3075 22.8241C29.8884 22.8151 30.585 22.7375 31.4122 22.3347L31.7155 19.8451C31.3174 20.2034 30.7298 20.5241 29.9906 20.5241C29.4219 20.5241 28.9291 20.3543 28.5121 19.9582C28.1709 19.6376 27.9055 19.1472 27.9055 18.4682C27.9055 17.9024 28.114 17.2422 28.531 16.7896L28.5888 16.734L28.6359 16.6915C28.8805 16.4776 29.3717 16.1483 30.1801 16.1483C31.1848 16.1483 31.8482 16.6575 32.0756 16.865L32.3979 14.3942C31.5828 13.9981 30.7867 13.8472 29.9337 13.8472C28.2656 13.8472 27.1473 14.4508 26.427 15.1864C25.574 16.054 25.1001 17.2611 25.1001 18.6191C25.1001 19.9205 25.555 20.9201 26.2374 21.6557C27.1094 22.5799 28.0571 22.8251 29.1755 22.8251ZM37.479 8.79245L36.4365 17.2234L39.5451 14.1301H43.1845L39.0333 17.9967L42.8623 22.5422H39.3556L36.2469 18.8454L35.7541 22.5422H33.0245L34.7495 8.79245H37.479ZM60.2999 13.8472C61.6078 13.8472 62.404 14.3376 62.8589 14.7714C63.5413 15.4504 63.9772 16.6198 63.9772 17.9212C63.9772 19.5244 63.3896 20.8636 62.5556 21.6934C61.7216 22.5233 60.7928 22.8251 59.6933 22.8251C59.0868 22.8251 58.4423 22.7685 57.8547 22.4668C57.5157 22.2892 57.1432 22.0115 56.8161 21.5863L56.7553 21.5048L56.0729 26.8614H53.3433L54.9166 14.1301H57.6665C57.9445 14.3691 58.2162 14.4131 58.4816 14.2622C58.64 14.1777 58.8034 14.1135 58.9629 14.0648C59.3817 13.9116 59.8138 13.8472 60.2999 13.8472ZM52.7936 14.1301L52.379 18.6757L52.3521 18.9033L52.3317 19.062C52.2097 19.9667 51.9748 20.9591 51.1469 21.75C50.1879 22.6682 48.9181 22.8131 47.9638 22.8243L47.7706 22.825L47.582 22.8231L47.4406 22.8197C46.5717 22.7931 45.3477 22.6429 44.5315 21.8632C43.9628 21.3351 43.6216 20.4863 43.6216 19.5999C43.6216 19.2816 43.6716 18.7478 43.7091 18.4647L43.7164 18.4116L44.2282 14.1301H46.9578L46.4649 18.3173L46.4246 18.6677L46.3919 18.9364C46.378 19.0567 46.3701 19.1471 46.3701 19.2415C46.3701 19.6942 46.5407 19.9959 46.7303 20.1657C46.9767 20.392 47.4506 20.5241 47.8487 20.5241C48.2639 20.5241 48.7479 20.3872 49.055 20.0972L49.1199 20.0316L49.1441 20.0046C49.2775 19.85 49.5321 19.4583 49.6397 18.6234L49.6494 18.5436L50.0764 14.1301H52.7936ZM59.6161 16.353C58.9906 16.353 58.508 16.5617 58.1148 16.9445C57.6502 17.3968 57.4714 17.9187 57.4714 18.5101C57.4714 18.8755 57.5608 19.3799 57.954 19.7801C58.2578 20.0932 58.7404 20.3193 59.2944 20.3193C59.8127 20.3193 60.3489 20.128 60.7242 19.7801C61.1532 19.3973 61.4391 18.6841 61.4391 18.11C61.4391 17.6229 61.2068 17.0836 60.8851 16.8053C60.5634 16.5096 60.0629 16.353 59.6161 16.353Z" fill="#23282E"/>
<path d="M69.0966 0.29895L72.4361 0.634117L72.4516 0.636023C75.1033 0.962111 77.122 3.02625 77.5011 5.55204L77.5037 5.57121L81.3896 5.54009C83.3841 5.54009 85 7.15844 85 9.15347C85 9.27114 84.9943 9.38873 84.9828 9.5058L84.9714 9.60702L83.772 18.6597C83.5262 20.4439 82.0017 21.7789 80.1955 21.7789L76.3122 21.7745L74.8606 21.7716C75.2236 21.3978 75.4472 20.8878 75.4472 20.3256C75.4472 19.8108 75.2597 19.3397 74.9493 18.9769L78.8262 18.9837L80.1955 18.9842C80.5974 18.9842 80.9384 18.6899 81.0004 18.2927L82.1986 9.24994L82.2017 9.22028C82.2026 9.20917 82.2033 9.19804 82.2038 9.18691L82.2044 9.15347C82.2044 8.70975 81.8535 8.34938 81.4164 8.33514L81.3932 8.33475L76.2207 8.37633C75.4109 8.38284 74.7491 7.73181 74.7426 6.92222C74.7422 6.88201 74.7436 6.84182 74.7466 6.80173L74.7572 6.69242C74.9021 5.08259 73.7581 3.63892 72.1594 3.41617L72.1212 3.41108L71.5257 3.35128L69.9528 13.3905C69.8568 14.1446 69.1762 14.6813 68.4239 14.604L68.3897 14.6C67.6353 14.504 67.0984 13.8237 67.1757 13.0716L67.1797 13.0374L69.0966 0.29895Z" fill="#00CC66"/>
<path d="M75.1414 18.9772L78.6634 18.9831C78.7581 19.3778 78.8083 19.7898 78.8083 20.2135C78.8083 20.7579 78.7255 21.2831 78.5717 21.7769L76.3212 21.7744L75.1215 21.7721C75.4412 21.3907 75.6337 20.8991 75.6337 20.3626C75.6337 19.8373 75.4492 19.3551 75.1414 18.9772Z" fill="#00B55B"/>
<path fill-rule="evenodd" clip-rule="evenodd" d="M73.4348 16.6925C75.4728 16.6925 77.125 18.3441 77.125 20.3814C77.125 22.4187 75.4728 24.0703 73.4348 24.0703C71.3968 24.0703 69.7447 22.4187 69.7447 20.3814C69.7447 18.3441 71.3968 16.6925 73.4348 16.6925ZM73.3789 18.9282C72.6069 18.9282 71.9811 19.5538 71.9811 20.3255C71.9811 21.0972 72.6069 21.7228 73.3789 21.7228C74.1509 21.7228 74.7767 21.0972 74.7767 20.3255C74.7767 19.5538 74.1509 18.9282 73.3789 18.9282Z" fill="#00CC66"/>
</svg>
