<svg width="48" height="48" viewBox="0 0 48 48" fill="none" xmlns="http://www.w3.org/2000/svg">
<path opacity="0.2" d="M35 33.9996L35 25.9996L15 25.9996L15 33.9996L35 33.9996Z" fill="#00CC66"/>
<path fill-rule="evenodd" clip-rule="evenodd" d="M14.9509 14.3643C14.3609 14.1032 13.7046 13.9689 13.0377 13.9759C12.4707 13.9818 12.0062 13.5443 12.0001 12.9988C11.9939 12.4533 12.4485 12.0063 13.0154 12.0004C13.981 11.9903 14.9383 12.1842 15.8086 12.5693C16.679 12.9545 17.4416 13.5218 18.0276 14.2305L18.0351 14.2395L19.044 15.4893L21.3187 13.2975C21.5166 13.1069 21.7831 13 22.0608 13H31.4985C32.7024 13 33.8603 13.4607 34.7165 14.2857C35.5733 15.1112 36 16.2344 36 17.409V34.9648C36 35.4884 36 35.7471 35.8706 35.875C35.7442 36 35.4942 36 35 36H15.0578C14.5251 36 14.2606 36 14.1294 35.8678C14 35.7375 14 35.4787 14 34.9648V20.7828C14 20.5054 14.1137 20.2397 14.3157 20.0451L17.5816 16.8983L16.4175 15.4563C16.0398 15.001 15.5388 14.6244 14.9509 14.3643ZM22.5 15L16 21V34H34.0578V17.409C34.0578 16.794 33.6889 16.2008 33.2323 15.761C32.7753 15.3206 32.1519 15 31.4985 15H22.5ZM23.9814 19.5C23.9814 19.1833 24.2574 18.9014 24.6304 18.9014H30.3696C30.7426 18.9014 31.0186 19.1833 31.0186 19.5C31.0186 19.8167 30.7426 20.0986 30.3696 20.0986H24.6304C24.2574 20.0986 23.9814 19.8167 23.9814 19.5ZM24.6304 17C23.1923 17 22 18.1054 22 19.5C22 20.8946 23.1923 22 24.6304 22H30.3696C31.8077 22 33 20.8946 33 19.5C33 18.1054 31.8077 17 30.3696 17H24.6304Z" fill="#00CC66"/>
</svg>
