<svg width="48" height="48" viewBox="0 0 48 48" fill="none" xmlns="http://www.w3.org/2000/svg">
<path d="M34.6341 17.3646L30.9999 20.9988L26.9997 16.9986L30.6339 13.3644C29.5063 12.9698 28.2917 12.8939 27.1239 13.1453C25.956 13.3967 24.8802 13.9655 24.0149 14.7892C23.1496 15.6128 22.5284 16.6593 22.2197 17.8133C21.911 18.9674 21.9269 20.1842 22.2654 21.3298L13.6521 27.4841C13.4523 27.6664 13.2916 27.8872 13.1796 28.1334C13.0676 28.3795 13.0067 28.6458 13.0005 28.9161C12.9944 29.1864 13.0431 29.4552 13.1437 29.7062C13.2444 29.9572 13.3948 30.1851 13.5861 30.3763L16.6242 33.4144C16.8154 33.6057 17.0434 33.7562 17.2943 33.8568C17.5453 33.9575 17.8141 34.0062 18.0844 34C18.3548 33.9938 18.621 33.9329 18.8672 33.8209C19.1133 33.7089 19.3341 33.5482 19.5164 33.3484L26.6687 25.7331C27.8144 26.0728 29.0317 26.0895 30.1863 25.7812C31.341 25.4729 32.388 24.8517 33.2119 23.9861C34.0359 23.1205 34.6047 22.0441 34.8556 20.8757C35.1066 19.7073 35.0299 18.4922 34.6341 17.3646Z" stroke="#00CC66" stroke-width="2" stroke-miterlimit="10" stroke-linecap="square"/>
<path opacity="0.2" d="M31 20.9988L34.6341 17.3646C35.03 18.4922 35.1066 19.7072 34.8557 20.8757C34.6047 22.0441 34.0359 23.1205 33.212 23.9861C32.3881 24.8517 31.341 25.4729 30.1864 25.7812C29.0318 26.0894 27.8145 26.0728 26.6687 25.7331L19.5165 33.3484C19.3342 33.5482 19.1134 33.7089 18.8672 33.8209C18.6211 33.9329 18.3548 33.9938 18.0845 34C17.8142 34.0062 17.5454 33.9575 17.2944 33.8568C17.0434 33.7562 16.8155 33.6057 16.6243 33.4144L15.2099 32L28.9999 18.9987L31 20.9988Z" fill="#00CC66"/>
</svg>
