<svg width="16" height="16" viewBox="0 0 16 16" fill="none" xmlns="http://www.w3.org/2000/svg">
<path d="M14.165 1.01398L8 0L1.835 1.01398C1.60168 1.05301 1.38976 1.17349 1.23688 1.35402C1.084 1.53454 1.00007 1.76342 1 1.99998V8.99998C1 14 8 16 8 16C8 16 15 14 15 8.99998V1.99998C14.9999 1.76342 14.916 1.53454 14.7631 1.35402C14.6102 1.17349 14.3983 1.05301 14.165 1.01398Z" fill="white"/>
<path fill-rule="evenodd" clip-rule="evenodd" d="M8 0L14.165 1.01398C14.3983 1.05301 14.6102 1.17349 14.7631 1.35402C14.916 1.53454 14.9999 1.76342 15 1.99998V8.99998C15 14 8 16 8 16C8 16 1 14 1 8.99998V1.99998C1.00007 1.76342 1.084 1.53454 1.23688 1.35402C1.38976 1.17349 1.60168 1.05301 1.835 1.01398L8 0ZM9.40449 4.39407L10.6024 5.58898L11.8503 4.39407C11.9501 4.64301 12 4.94173 12 5.24046C12 6.48516 11.0017 7.48092 9.75389 7.48092C9.50432 7.48092 9.25475 7.43114 9.00518 7.38135L6.55941 10.6674C6.25993 11.0657 5.71088 11.1155 5.36149 10.7669L4.21347 9.57202C3.91399 9.22351 3.91399 8.67584 4.3133 8.37711L7.6076 5.93749C7.60032 5.90118 7.59304 5.86592 7.58591 5.83141C7.54419 5.62938 7.50777 5.45308 7.50777 5.24046C7.50777 3.99576 8.50605 3 9.75389 3C10.0534 3 10.3529 3.04979 10.6024 3.19915L9.40449 4.39407Z" fill="currentColor"/>
</svg>
