<svg width="40" height="40" viewBox="0 0 40 40" fill="none" xmlns="http://www.w3.org/2000/svg">
    <path d="m27.48 22.478 5.278 5.278a4.244 4.244 0 0 1-4.624 6.92 4.241 4.241 0 0 1-1.376-.92l-4.945-4.944M18.64 15.7 9 6.06l-3 3 9.502 9.502" stroke="currentColor" stroke-width="2" stroke-miterlimit="10" stroke-linecap="square"/>
    <path d="M34.636 9.365 31 12.999l-4-4 3.634-3.635a6.49 6.49 0 0 0-8.368 7.966L5.652 28.484a2 2 0 0 0-.066 2.892l3.038 3.038a2 2 0 0 0 2.892-.066L26.67 17.733a6.487 6.487 0 0 0 7.966-8.368Z" stroke="currentColor" stroke-width="2" stroke-miterlimit="10" stroke-linecap="square"/>
</svg>