<svg width="48" height="48" viewBox="0 0 48 48" fill="none" xmlns="http://www.w3.org/2000/svg">
<path fill-rule="evenodd" clip-rule="evenodd" d="M29.5232 13.5475L19.2991 19.5176L18.5952 18.3121L28.8328 12.3341L29.1804 12.9393C28.8328 12.3341 28.8324 12.3343 28.8328 12.3341L28.8343 12.3332L28.8361 12.3322L28.8401 12.33L28.85 12.3245C28.8575 12.3204 28.8667 12.3154 28.8776 12.3097C28.8995 12.2984 28.9281 12.2841 28.9631 12.2679C29.0329 12.2357 29.129 12.1955 29.2477 12.1562C29.4837 12.0779 29.8177 12 30.2157 12C31.0438 12 32.0527 12.3383 32.964 13.466L33.3576 13.953L31.701 15.6185L31.2061 15.121C30.9989 14.9126 30.7227 14.9126 30.5155 15.121C30.3062 15.3314 30.3062 15.6156 30.5155 15.826L31.0051 16.3182L28.9404 18.394L28.4455 17.8965C28.2383 17.6881 27.9622 17.6881 27.7549 17.8965C27.5456 18.1069 27.5456 18.3911 27.7549 18.6015L28.2445 19.0937L26.6747 20.672L25.685 19.6875L26.3639 19.0049C26.0547 18.3131 26.1884 17.4919 26.7652 16.912C27.3421 16.332 28.1604 16.1964 28.8502 16.5052L29.1245 16.2294C28.8152 15.5376 28.949 14.7164 29.5258 14.1365C29.9284 13.7318 30.4485 13.5434 30.9605 13.5715C30.6738 13.4326 30.4182 13.396 30.2157 13.396C29.9986 13.396 29.8149 13.4388 29.6871 13.4812C29.6239 13.5021 29.5765 13.5223 29.5484 13.5353C29.5359 13.541 29.5275 13.5453 29.5232 13.5475Z" fill="#00CC66"/>
<path fill-rule="evenodd" clip-rule="evenodd" d="M34.0533 14.5325L34.5435 14.9329C35.6655 15.8495 36.0001 16.8623 36.0001 17.6909C36.0001 18.0895 35.923 18.4241 35.8453 18.6608C35.8063 18.7797 35.7664 18.8761 35.7345 18.9461C35.7184 18.9811 35.7043 19.0098 35.693 19.0317C35.6874 19.0426 35.6825 19.0518 35.6785 19.0593L35.673 19.0693L35.6708 19.0732L35.6698 19.075C35.6698 19.075 35.6693 19.0758 35.6693 19.0758L29.7881 29.4537L28.5736 28.7655L34.4517 18.393C34.4517 18.393 34.4517 18.393 34.4517 18.393C34.4536 18.3893 34.4582 18.3802 34.4647 18.366C34.4778 18.3374 34.4979 18.2895 34.5189 18.2256C34.5613 18.0964 34.6042 17.9106 34.6042 17.6909C34.6042 17.4898 34.5689 17.2384 34.4378 16.957C34.4614 17.4648 34.2743 17.9793 33.8766 18.3792C33.2997 18.9592 32.4814 19.0948 31.7916 18.786L31.5173 19.0618C31.8266 19.7536 31.6928 20.5748 31.116 21.1547C30.5474 21.7263 29.7444 21.8663 29.061 21.5746L27.8653 22.9104L26.0347 20.9026L25.5653 20.4306C25.4071 20.2715 25.2 20.1546 25.011 20.1163C24.8403 20.0817 24.7044 20.1108 24.5828 20.2128C24.4557 20.3193 24.4117 20.4448 24.419 20.5864C24.4272 20.7463 24.5046 20.9215 24.6293 21.0469L24.6405 21.0581L27.1471 23.8182C27.1655 23.835 27.1894 23.8574 27.2177 23.885C27.2769 23.943 27.3563 24.0252 27.4446 24.1291C27.6187 24.3339 27.84 24.6376 28.0039 25.0181C28.1689 25.4013 28.2826 25.8798 28.2123 26.4149C28.1412 26.9565 27.8888 27.4994 27.4131 28.0144L26.3876 27.0673C26.6921 26.7376 26.7991 26.4548 26.8283 26.2331C26.8582 26.005 26.8131 25.7824 26.7217 25.5702C26.6292 25.3554 26.4967 25.1693 26.3809 25.0332C26.3243 24.9665 26.2748 24.9155 26.2414 24.8829C26.2248 24.8666 26.2125 24.8552 26.2056 24.8489L26.1999 24.8439L26.1685 24.8171L23.6272 22.0187C22.9651 21.3403 22.6619 20.0013 23.6861 19.1429C24.1844 18.7252 24.7713 18.6433 25.2885 18.7482C25.7873 18.8494 26.2332 19.1226 26.5551 19.4462L27.0459 19.9396L27.8558 20.828L28.9141 19.6458L29.4357 20.1702C29.6429 20.3786 29.919 20.3786 30.1263 20.1702C30.3356 19.9598 30.3356 19.6757 30.1263 19.4652L29.6367 18.973L31.7014 16.8972L32.1963 17.3947C32.4035 17.6031 32.6796 17.6031 32.8869 17.3947C33.0961 17.1843 33.0961 16.9002 32.8869 16.6897L32.3973 16.1975L34.0533 14.5325Z" fill="#00CC66"/>
<path fill-rule="evenodd" clip-rule="evenodd" d="M24.6143 21.0325C24.6146 21.0327 24.6148 21.0329 24.1342 21.5391C23.6537 22.0454 23.6539 22.0456 23.6541 22.0457L23.6551 22.0467L23.6558 22.0473C23.656 22.0475 23.6564 22.0479 23.6558 22.0473L23.646 22.0385C23.6365 22.0299 23.6203 22.0156 23.5978 21.9968C23.5527 21.9589 23.4833 21.9034 23.3934 21.8392C23.2116 21.7095 22.9566 21.5524 22.6578 21.4334C22.069 21.1988 21.3668 21.1257 20.6544 21.6352L19.8423 20.4998C21.0626 19.6269 22.3034 19.7896 23.1743 20.1365C23.6054 20.3082 23.9595 20.5282 24.2043 20.7029C24.3277 20.7909 24.426 20.8694 24.4953 20.9275C24.53 20.9567 24.5576 20.9809 24.5776 20.9988L24.602 21.021L24.6099 21.0283L24.6127 21.0309L24.6143 21.0325Z" fill="#00CC66"/>
<path opacity="0.2" d="M26.3464 27.8453C26.6285 27.4156 27.2055 27.296 27.6351 27.5781L28.7332 28.299C29.1629 28.5811 29.2825 29.1581 29.0004 29.5877L25.9359 34.2555C25.6538 34.6852 25.0768 34.8048 24.6471 34.5227L23.5491 33.8018C23.1194 33.5197 22.9998 32.9427 23.2819 32.5131L26.3464 27.8453Z" fill="#00CC66"/>
<path fill-rule="evenodd" clip-rule="evenodd" d="M25.7627 27.4622C26.2563 26.7103 27.266 26.5009 28.0179 26.9946L29.116 27.7155C29.8679 28.2092 30.0773 29.2189 29.5836 29.9708L26.519 34.6386C26.0254 35.3905 25.0157 35.5998 24.2638 35.1062L23.1657 34.3852C22.4138 33.8916 22.2045 32.8819 22.6981 32.13L25.7627 27.4622ZM27.2518 28.1615C27.1444 28.091 27.0001 28.1209 26.9296 28.2283L23.865 32.8961C23.7945 33.0035 23.8244 33.1478 23.9318 33.2183L25.0299 33.9392C25.1373 34.0097 25.2816 33.9798 25.3521 33.8724L28.4167 29.2046C28.4872 29.0972 28.4573 28.953 28.3499 28.8825L27.2518 28.1615Z" fill="#00CC66"/>
<path opacity="0.2" d="M18.4067 19.1514C18.8359 18.8686 19.4131 18.9873 19.6958 19.4165L20.4185 20.5134C20.7013 20.9426 20.5826 21.5198 20.1534 21.8026L15.4905 24.8746C15.0613 25.1574 14.4841 25.0387 14.2013 24.6094L13.4787 23.5125C13.1959 23.0833 13.3146 22.5062 13.7438 22.2234L18.4067 19.1514Z" fill="#00CC66"/>
<path fill-rule="evenodd" clip-rule="evenodd" d="M18.0226 18.5685C18.7737 18.0736 19.7837 18.2814 20.2786 19.0325L21.0012 20.1294C21.4961 20.8805 21.2884 21.8906 20.5372 22.3854L15.8744 25.4574C15.1233 25.9523 14.1132 25.7445 13.6184 24.9934L12.8957 23.8965C12.4008 23.1454 12.6086 22.1353 13.3597 21.6405L18.0226 18.5685ZM19.1129 19.8005C19.0422 19.6932 18.8979 19.6635 18.7906 19.7342L14.1277 22.8062C14.0204 22.8769 13.9907 23.0212 14.0614 23.1285L14.7841 24.2254C14.8548 24.3327 14.9991 24.3624 15.1064 24.2917L19.7692 21.2197C19.8765 21.149 19.9062 21.0047 19.8355 20.8974L19.1129 19.8005Z" fill="#00CC66"/>
<path fill-rule="evenodd" clip-rule="evenodd" d="M23.915 25.6581C23.9813 26.0378 23.7272 26.3994 23.3474 26.4656L20.1387 27.0256L22.8509 29.5754L16.8918 30.6152C16.512 30.6815 16.1504 30.4274 16.0842 30.0476C16.0179 29.6679 16.272 29.3063 16.6518 29.24L19.8606 28.6801L17.1483 26.1303L23.1075 25.0905C23.4872 25.0242 23.8488 25.2783 23.915 25.6581Z" fill="#00CC66"/>
</svg>
