<svg width="48" height="48" viewBox="0 0 48 48" fill="none" xmlns="http://www.w3.org/2000/svg">
<path fill-rule="evenodd" clip-rule="evenodd" d="M24 14C21.7523 14 20 15.7523 20 18V20.5H18V18C18 14.6477 20.6477 12 24 12C25.6371 12 27.1129 12.5841 28.1902 13.4818C28.9934 14.1511 29.6137 15.0319 29.8707 16.0111C30.0109 16.5453 29.5523 17 29 17C28.4477 17 28.0018 16.533 27.7506 16.0412C27.5702 15.6878 27.2909 15.3358 26.9098 15.0182C26.1871 14.4159 25.1629 14 24 14Z" fill="#00CC66"/>
<path opacity="0.2" d="M24 35C28.4183 35 32 31.4183 32 27H16C16 31.4183 19.5817 35 24 35Z" fill="#00CC66"/>
<path fill-rule="evenodd" clip-rule="evenodd" d="M24 20C20.134 20 17 23.134 17 27C17 30.866 20.134 34 24 34C27.866 34 31 30.866 31 27C31 23.134 27.866 20 24 20ZM15 27C15 22.0294 19.0294 18 24 18C28.9706 18 33 22.0294 33 27C33 31.9706 28.9706 36 24 36C19.0294 36 15 31.9706 15 27Z" fill="#00CC66"/>
<path fill-rule="evenodd" clip-rule="evenodd" d="M24.0001 24.5714C23.29 24.5714 22.7144 25.147 22.7144 25.8571C22.7144 26.5672 23.29 27.1428 24.0001 27.1428C24.7102 27.1428 25.2858 26.5672 25.2858 25.8571C25.2858 25.147 24.7102 24.5714 24.0001 24.5714ZM20.7144 25.8571C20.7144 24.0425 22.1854 22.5714 24.0001 22.5714C25.8147 22.5714 27.2858 24.0425 27.2858 25.8571C27.2858 27.6718 25.8147 29.1428 24.0001 29.1428C22.1854 29.1428 20.7144 27.6718 20.7144 25.8571Z" fill="#00CC66"/>
<path fill-rule="evenodd" clip-rule="evenodd" d="M25 27.1429V30.4286C25 30.9809 24.5523 31.4286 24 31.4286C23.4477 31.4286 23 30.9809 23 30.4286V27.1429H25Z" fill="#00CC66"/>
</svg>
