<svg width="128" height="40" viewBox="0 0 128 40" fill="none" xmlns="http://www.w3.org/2000/svg">
<path d="M6.65086 33.4958L8.53479 18.2436H12.6737L13.1305 14.5512H0.456711L0 18.2436H4.13895L2.25501 33.4958H6.65086ZM20.2397 20.5158C20.8758 20.5158 21.4135 20.5893 21.8299 20.6907L21.9238 20.7146L21.1246 24.5206L20.984 24.4536C20.5893 24.2741 20.0367 24.0946 19.3263 24.0946C18.2987 24.0946 17.6136 24.4922 17.214 24.8614C16.525 25.5196 16.1819 26.6543 16.0049 27.9589L15.3015 33.4958H11.1911L12.7611 20.8282H16.8715C17.2901 21.188 17.6992 21.2543 18.0989 21.0271C18.8981 20.601 19.783 20.5158 20.2397 20.5158ZM33.7144 32.3029C35.0702 31.0078 35.3699 29.3537 35.5433 27.9009L36.369 20.8282H32.2586L31.4594 27.4745C31.2881 28.9798 30.8028 29.5763 30.6316 29.7467C30.1749 30.2295 29.4042 30.4568 28.7476 30.4568C28.1482 30.4568 27.4346 30.2579 27.0635 29.9171C26.7781 29.6615 26.5212 29.207 26.5212 28.5254L26.5224 28.4442L26.529 28.3201C26.5473 28.0653 26.5969 27.756 26.6639 27.1336L27.406 20.8282H23.2956L22.5249 27.2757C22.4678 27.6733 22.3822 28.5538 22.3822 29.065C22.3822 30.3999 22.896 31.6781 23.7524 32.4733C25.1147 33.7747 27.2313 33.9115 28.5381 33.9212L28.7191 33.9219C30.1749 33.9219 32.2015 33.7515 33.7144 32.3029ZM43.935 33.9219L44.1338 33.9204C45.0086 33.9068 46.0574 33.79 47.3032 33.1834L47.7599 29.4343C47.1605 29.9739 46.2756 30.4568 45.1624 30.4568C44.306 30.4568 43.5639 30.2011 42.9359 29.6047C42.4221 29.1218 42.0225 28.3834 42.0225 27.3609C42.0225 26.5088 42.3365 25.5147 42.9645 24.833L43.0515 24.7493L43.1224 24.6854C43.4908 24.3632 44.2305 23.8673 45.4478 23.8673C46.9607 23.8673 47.9597 24.6342 48.3023 24.9466L48.7875 21.2259C47.5601 20.6294 46.3612 20.4022 45.0767 20.4022C42.5648 20.4022 40.8807 21.3111 39.796 22.4188C38.5115 23.7253 37.7979 25.5431 37.7979 27.5881C37.7979 29.5479 38.483 31.0532 39.5106 32.1609C40.8236 33.5526 42.2508 33.9219 43.935 33.9219ZM56.4391 12.7903L54.8692 25.4863L59.5505 20.8282H65.031L58.7798 26.6508L64.5457 33.4958H59.265L54.5837 27.9289L53.8416 33.4958H49.7312L52.3287 12.7903H56.4391ZM90.8048 20.4022C92.7744 20.4022 93.9732 21.1407 94.6583 21.7939C95.6859 22.8164 96.3424 24.5774 96.3424 26.5372C96.3424 28.9514 95.4576 30.968 94.2016 32.2177C92.9456 33.4674 91.547 33.9219 89.8914 33.9219C88.978 33.9219 88.0074 33.8367 87.1226 33.3822C86.6121 33.1149 86.0511 32.6966 85.5585 32.0564L85.467 31.9337L84.4394 40.0001H80.329L82.6982 20.8282H86.8392C87.2578 21.188 87.667 21.2543 88.0666 21.0271C88.3051 20.8999 88.5512 20.8031 88.7914 20.7299C89.422 20.4991 90.0728 20.4022 90.8048 20.4022ZM79.5011 20.8282L78.8768 27.6733L78.8363 28.016L78.8055 28.255C78.6218 29.6174 78.2682 31.1119 77.0214 32.3029C75.5773 33.6856 73.665 33.9037 72.228 33.9207L71.937 33.9217L71.653 33.9189L71.4401 33.9138C70.1317 33.8736 68.2885 33.6475 67.0593 32.4733C66.203 31.6781 65.6892 30.3999 65.6892 29.065C65.6892 28.5857 65.7645 27.7819 65.8209 27.3557L65.8319 27.2757L66.6026 20.8282H70.713L69.9709 27.1336L69.9102 27.6612L69.8609 28.0659C69.84 28.247 69.8282 28.3833 69.8282 28.5254C69.8282 29.207 70.0851 29.6615 70.3705 29.9171C70.7416 30.2579 71.4552 30.4568 72.0546 30.4568C72.6799 30.4568 73.4087 30.2507 73.8712 29.8139L73.969 29.7152L74.0055 29.6745C74.2063 29.4417 74.5897 28.8519 74.7518 27.5945L74.7663 27.4745L75.4093 20.8282H79.5011ZM89.7751 24.1756C88.8331 24.1756 88.1064 24.49 87.5143 25.0663C86.8146 25.7474 86.5454 26.5333 86.5454 27.424C86.5454 27.9741 86.68 28.7339 87.2721 29.3364C87.7296 29.8079 88.4563 30.1485 89.2906 30.1485C90.0711 30.1485 90.8786 29.8603 91.4437 29.3364C92.0897 28.76 92.5203 27.686 92.5203 26.8215C92.5203 26.088 92.1704 25.2759 91.686 24.8567C91.2015 24.4114 90.4479 24.1756 89.7751 24.1756Z" fill="white"/>
<path d="M109.081 0.504723L104.052 0L101.165 19.1826L101.159 19.2342C101.042 20.3667 101.851 21.3912 102.987 21.5358L103.039 21.5417C104.171 21.6582 105.196 20.8499 105.341 19.7143L107.71 4.59645L108.606 4.68651L108.664 4.69418C111.071 5.02962 112.794 7.20361 112.576 9.62784L112.56 9.79245C112.555 9.85281 112.553 9.91334 112.554 9.97389C112.564 11.193 113.56 12.1734 114.78 12.1636L122.569 12.101L122.604 12.1016C123.262 12.123 123.79 12.6657 123.79 13.3339L123.789 13.3842C123.789 13.401 123.788 13.4178 123.786 13.4345L123.782 13.4792L121.977 27.0966C121.884 27.6947 121.37 28.1378 120.765 28.1378L118.703 28.1371L118.458 28.1367C118.601 28.7309 118.676 29.3511 118.676 29.989C118.676 30.8089 118.552 31.5997 118.32 32.3434L120.765 32.3464C123.485 32.3464 125.781 30.336 126.151 27.6491L127.957 14.0169L127.974 13.8645C127.992 13.6882 128 13.5111 128 13.3339C128 10.3296 125.567 7.89255 122.563 7.89255L116.712 7.93942L116.708 7.91055C116.137 4.10701 113.097 0.998644 109.104 0.507593L109.081 0.504723Z" fill="white"/>
<path fill-rule="evenodd" clip-rule="evenodd" d="M110.584 24.6868C113.653 24.6868 116.141 27.1739 116.141 30.2418C116.141 33.3098 113.653 35.7969 110.584 35.7969C107.515 35.7969 105.027 33.3098 105.027 30.2418C105.027 27.1739 107.515 24.6868 110.584 24.6868ZM110.5 28.0535C109.338 28.0535 108.395 28.9955 108.395 30.1577C108.395 31.3198 109.338 32.2618 110.5 32.2618C111.663 32.2618 112.605 31.3198 112.605 30.1577C112.605 28.9955 111.663 28.0535 110.5 28.0535Z" fill="white"/>
</svg>
