<svg width="128" height="141" viewBox="0 0 128 141" fill="none" xmlns="http://www.w3.org/2000/svg">
<path d="M8.66009 129.674H12.6211C12.3013 130.857 11.5632 131.485 11.4402 131.582C11.0711 131.896 10.2101 132.451 8.58628 132.451C7.33155 132.451 6.22444 132.161 5.26494 131.195C4.57607 130.519 3.8872 129.336 3.8872 127.501C3.8872 126.003 4.37925 124.627 5.28954 123.685C6.07682 122.864 7.18394 122.381 8.68469 122.381C9.61959 122.381 10.4561 122.622 11.1942 123.154C11.8338 123.613 12.3259 124.265 12.6457 124.892L16.0655 123.081C15.475 122.067 14.5155 120.932 13.4084 120.207C11.883 119.217 10.1608 119 8.80771 119C6.86411 119 4.37925 119.29 2.36184 121.342C0.984101 122.719 0 124.82 0 127.452C0 130.664 1.45155 132.62 2.41105 133.586C4.33005 135.518 6.44586 135.832 8.41407 135.832C10.3577 135.832 12.4489 135.494 14.2695 133.634C16.0901 131.775 16.8035 128.805 16.8035 126.849V126.679H8.66009V129.674Z" fill="#00CC66"/>
<path d="M22.3785 128.611C22.4769 128.128 22.7229 127.742 22.9936 127.452C23.338 127.114 23.8793 126.752 24.7895 126.752C25.503 126.752 26.0689 126.993 26.4625 127.356C26.9792 127.839 27.1514 128.515 27.176 128.611H22.3785ZM30.4481 130.326C30.4481 128.998 30.2021 127.307 28.8982 125.955C27.545 124.554 25.7736 124.337 24.5435 124.337C23.3134 124.337 21.665 124.578 20.3365 125.883C19.2294 126.993 18.6635 128.587 18.6635 130.133C18.6635 131.92 19.3524 133.345 20.3119 134.286C21.5912 135.542 23.0428 135.832 24.6911 135.832C25.9213 135.832 27.1022 135.663 28.1601 135.035C28.7998 134.649 29.7839 133.852 30.2759 132.33L26.93 131.992C26.6347 132.596 26.2165 132.862 26.1673 132.886C25.7983 133.103 25.257 133.2 24.7403 133.2C24.1991 133.2 23.461 133.103 22.9198 132.524C22.4769 132.041 22.2555 131.268 22.2555 130.688H30.4481V130.326Z" fill="#00CC66"/>
<path d="M38.4901 127.501V124.699H36.3005V121.222H32.7577V124.699H31.5276V127.501H32.7577V135.47H36.3005V127.501H38.4901Z" fill="#00CC66"/>
<path d="M45.7534 124.699V131.195C45.7534 132.379 45.9502 133.465 46.9589 134.431C48.2137 135.639 50.0342 135.832 51.3874 135.832C52.6913 135.832 54.5365 135.639 55.7912 134.431C56.8983 133.369 57.0214 132.21 57.0214 130.978V124.699H53.4786V130.64C53.4786 131.171 53.4048 131.896 52.8881 132.379C52.5683 132.668 52.0517 132.886 51.3874 132.886C50.6001 132.886 50.1573 132.596 49.9112 132.379C49.3454 131.872 49.2962 131.123 49.2962 130.64V124.699H45.7534Z" fill="#00CC66"/>
<path d="M63.3273 134.238C63.6963 134.745 64.6312 135.832 66.8209 135.832C68.2724 135.832 69.4533 135.446 70.5358 134.383C71.6183 133.321 72.2826 131.92 72.2826 130.06C72.2826 128.297 71.6183 126.824 70.6342 125.858C69.9454 125.182 68.7152 124.337 66.747 124.337C65.9106 124.337 64.4836 124.506 63.3273 125.979V124.699H59.7845V141H63.3273V134.238ZM65.886 127.332C66.5994 127.332 67.2883 127.597 67.805 128.08C68.297 128.539 68.6414 129.239 68.6414 130.036C68.6414 130.737 68.3462 131.558 67.7803 132.089C67.2637 132.572 66.5502 132.838 65.886 132.838C65.1233 132.838 64.3852 132.524 63.8685 132.016C63.3519 131.485 63.0813 130.785 63.0813 130.109C63.0813 129.457 63.3519 128.684 63.9178 128.128C64.2622 127.79 64.9019 127.332 65.886 127.332Z" fill="#00CC66"/>
<path d="M78.351 130.278V119.362H74.7098V130.278H78.351ZM74.2916 133.659C74.2916 134.89 75.2757 135.856 76.5304 135.856C77.7851 135.856 78.7692 134.89 78.7692 133.659C78.7692 132.427 77.7851 131.461 76.5304 131.461C75.2757 131.461 74.2916 132.427 74.2916 133.659Z" fill="#00CC66"/>
<path d="M87.8429 120.214V119.416H83.6923V120.214H85.3164V126.004H86.2188V120.214H87.8429ZM89.3228 126.004L89.9905 121.548L92.2463 126.333L94.5382 121.548L95.1698 126.004H96L94.8991 119L92.2463 124.461L89.6656 119L88.4926 126.004H89.3228Z" fill="white"/>
<path d="M8.83629 106.369L11.3393 86.131H16.8383L17.445 81.2317H0.606784L0 86.131H5.49898L2.996 106.369H8.83629ZM26.8904 89.146C27.7355 89.146 28.4499 89.2435 29.0031 89.3782L29.1279 89.4099L28.066 94.46L27.8792 94.3711C27.3548 94.1329 26.6207 93.8947 25.6768 93.8947C24.3115 93.8947 23.4013 94.4223 22.8704 94.9123C21.955 95.7856 21.4992 97.2913 21.264 99.0223L20.3295 106.369H14.8684L16.9543 89.5606H22.4153C22.9715 90.038 23.5151 90.1259 24.0461 89.8244C25.1079 89.2591 26.2836 89.146 26.8904 89.146ZM44.7927 104.786C46.5941 103.068 46.9922 100.873 47.2226 98.9454L48.3197 89.5606H42.8586L41.7967 98.3795C41.5692 100.377 40.9245 101.168 40.6969 101.395C40.0901 102.035 39.0662 102.337 38.1939 102.337C37.3975 102.337 36.4494 102.073 35.9564 101.621C35.5772 101.281 35.2359 100.678 35.2359 99.774L35.2376 99.6662L35.2462 99.5016C35.2706 99.1635 35.3364 98.7531 35.4255 97.9273L36.4115 89.5606H30.9505L29.9265 98.1157C29.8507 98.6433 29.7369 99.8117 29.7369 100.49C29.7369 102.261 30.4195 103.957 31.5572 105.013C33.3672 106.739 36.1793 106.921 37.9155 106.934L38.156 106.935C40.0901 106.935 42.7827 106.708 44.7927 104.786ZM58.3717 106.935L58.6359 106.933C59.7982 106.915 61.1917 106.76 62.8468 105.955L63.4536 100.98C62.6572 101.696 61.4815 102.337 60.0025 102.337C58.8648 102.337 57.8787 101.998 57.0444 101.206C56.3618 100.565 55.8308 99.5855 55.8308 98.2288C55.8308 97.0981 56.248 95.7791 57.0823 94.8746L57.1979 94.7635L57.2922 94.6786C57.7816 94.2512 58.7644 93.5932 60.3817 93.5932C62.3917 93.5932 63.719 94.6108 64.1741 95.0253L64.8188 90.0882C63.1881 89.2968 61.5953 88.9953 59.8887 88.9953C56.5514 88.9953 54.3139 90.2013 52.8728 91.6711C51.1662 93.4048 50.2181 95.8168 50.2181 98.5303C50.2181 101.131 51.1283 103.128 52.4935 104.598C54.238 106.445 56.1342 106.935 58.3717 106.935ZM74.9847 78.895L72.8989 95.7414L79.1184 89.5606H86.3998L78.0945 97.2866L85.7551 106.369H78.7392L72.5196 98.9825L71.5336 106.369H66.0726L69.5236 78.895H74.9847ZM120.643 88.9953C123.259 88.9953 124.852 89.9752 125.762 90.842C127.128 92.1987 128 94.5354 128 97.1358C128 100.339 126.824 103.015 125.156 104.673C123.487 106.332 121.629 106.935 119.429 106.935C118.216 106.935 116.926 106.822 115.751 106.219C115.072 105.864 114.327 105.309 113.673 104.459L113.551 104.296L112.186 115H106.725L109.872 89.5606H115.374C115.93 90.038 116.474 90.1259 117.005 89.8244C117.322 89.6557 117.649 89.5273 117.968 89.4301C118.806 89.1239 119.67 88.9953 120.643 88.9953ZM105.622 89.5606L104.795 98.6433L104.741 99.0981L104.701 99.4152C104.457 101.223 103.987 103.206 102.33 104.786C100.412 106.621 97.8709 106.911 95.9617 106.933L95.5751 106.934L95.1978 106.931L94.9149 106.924C93.1766 106.871 90.7278 106.571 89.0947 105.013C87.9569 103.957 87.2743 102.261 87.2743 100.49C87.2743 99.854 87.3743 98.7875 87.4493 98.2219L87.4639 98.1157L88.4879 89.5606H93.9489L92.9629 97.9273L92.8823 98.6273L92.8168 99.1643C92.789 99.4046 92.7733 99.5854 92.7733 99.774C92.7733 100.678 93.1146 101.281 93.4938 101.621C93.9868 102.073 94.935 102.337 95.7314 102.337C96.5621 102.337 97.5304 102.063 98.1449 101.484L98.2748 101.353L98.3232 101.299C98.59 100.99 99.0994 100.207 99.3148 98.5388L99.3341 98.3795L100.22 89.5606H105.622ZM119.275 94.0022C118.023 94.0022 117.058 94.4194 116.271 95.1841C115.341 96.0879 114.984 97.1307 114.984 98.3126C114.984 99.0425 115.163 100.051 115.949 100.85C116.557 101.476 117.523 101.928 118.631 101.928C119.668 101.928 120.741 101.545 121.492 100.85C122.35 100.085 122.922 98.6602 122.922 97.5131C122.922 96.5398 122.457 95.4622 121.813 94.906C121.17 94.3151 120.169 94.0022 119.275 94.0022Z" fill="white"/>
<path d="M43.3531 0L53.2061 1.00154L53.2518 1.00724C61.0754 1.98165 67.0312 8.14969 68.1497 15.6972L68.1574 15.7545L79.6224 15.6615C85.5073 15.6615 90.2748 20.4974 90.2748 26.4589C90.2748 26.8106 90.2578 27.1619 90.224 27.5118L90.1904 27.8142L86.6516 54.8652C85.9264 60.1969 81.4284 64.1862 76.0994 64.1862L64.642 64.1728L60.3591 64.1642C61.4304 63.0472 62.0899 61.5232 62.0899 59.8433C62.0899 58.3049 61.5368 56.8974 60.6211 55.8133L72.0594 55.8335L76.0994 55.8349C77.2851 55.8349 78.2913 54.9556 78.4744 53.7688L82.0095 26.7472L82.0187 26.6586C82.0213 26.6254 82.0233 26.5921 82.0247 26.5589L82.0267 26.4589C82.0267 25.133 80.9912 24.0562 79.7017 24.0136L79.6331 24.0125L64.3723 24.1367C61.9828 24.1562 60.0302 22.2108 60.011 19.7916C60.0101 19.6714 60.014 19.5513 60.0228 19.4315L60.0542 19.1049C60.4817 14.2944 57.1064 9.98046 52.3895 9.31484L52.2769 9.29962L50.52 9.12092L44.5955 43.0193C44.312 45.2727 42.3041 46.8767 40.0845 46.6456L39.9835 46.6338C37.7578 46.3468 36.1736 44.3138 36.4019 42.0666L36.4135 41.9643L43.3531 0Z" fill="#00CC66"/>
<path d="M64.642 64.173L73.4326 64.1864C73.6572 63.5176 74.1063 61.4447 74.1063 59.8401C74.1063 58.2354 73.6572 56.6129 73.4326 55.8351L72.0594 55.8337L60.6211 55.8135C61.5369 56.8976 62.0899 58.3051 62.0899 59.8435C62.0899 61.5234 61.4304 63.0474 60.3591 64.1644L64.642 64.173Z" fill="#00B55B"/>
<path fill-rule="evenodd" clip-rule="evenodd" d="M57.9296 49.4521C63.8826 49.4521 68.7085 54.2417 68.7085 60.1499C68.7085 66.058 63.8826 70.8476 57.9296 70.8476C51.9765 70.8476 47.1506 66.058 47.1506 60.1499C47.1506 54.2417 51.9765 49.4521 57.9296 49.4521ZM57.7663 55.9356C55.5113 55.9356 53.6833 57.7498 53.6833 59.9878C53.6833 62.2257 55.5113 64.0399 57.7663 64.0399C60.0212 64.0399 61.8492 62.2257 61.8492 59.9878C61.8492 57.7498 60.0212 55.9356 57.7663 55.9356Z" fill="#00CC66"/>
</svg>
