<svg width="16" height="16" viewBox="0 0 16 16" fill="none" xmlns="http://www.w3.org/2000/svg">
<path d="M0.666626 8.6665V12.6665C0.666626 13.0201 0.807102 13.3593 1.05715 13.6093C1.3072 13.8594 1.64634 13.9998 1.99996 13.9998H14C14.3536 13.9998 14.6927 13.8594 14.9428 13.6093C15.1928 13.3593 15.3333 13.0201 15.3333 12.6665V8.6665" stroke="#00CC66" stroke-miterlimit="10" stroke-linecap="square"/>
<path d="M15.3333 5.33333V3.33333C15.3333 2.97971 15.1928 2.64057 14.9428 2.39052C14.6927 2.14048 14.3536 2 14 2H1.99996C1.64634 2 1.3072 2.14048 1.05715 2.39052C0.807102 2.64057 0.666626 2.97971 0.666626 3.33333V5.33333L7.99996 9.33333L15.3333 5.33333Z" stroke="#00CC66" stroke-miterlimit="10" stroke-linecap="square"/>
</svg>
