<svg width="32" height="32" viewBox="0 0 32 32" fill="none" xmlns="http://www.w3.org/2000/svg">
<path fill-rule="evenodd" clip-rule="evenodd" d="M0 16C0 7.16344 7.16344 0 16 0C24.8366 0 32 7.16344 32 16C32 24.8366 24.8366 32 16 32C7.16344 32 0 24.8366 0 16Z" fill="#00CC66" fill-opacity="0.1"/>
<path d="M20.5 13.4545C20.5 16.2036 16 20 16 20C16 20 11.5 16.2036 11.5 13.4545C11.5 10.6355 13.8252 9 16 9C18.1748 9 20.5 10.6355 20.5 13.4545Z" stroke="#00CC66" stroke-width="2" stroke-miterlimit="10" stroke-linecap="square"/>
<path d="M16 15.5C17.1046 15.5 18 14.6046 18 13.5C18 12.3954 17.1046 11.5 16 11.5C14.8954 11.5 14 12.3954 14 13.5C14 14.6046 14.8954 15.5 16 15.5Z" fill="#00CC66"/>
<path d="M22 20C22.6513 20.3014 23 20.6603 23 21.0487C23 22.1265 19.8659 23 16 23C12.1341 23 9 22.1265 9 21.0487C9 20.6603 9.34875 20.3014 10 20" stroke="#00CC66" stroke-width="2" stroke-miterlimit="10" stroke-linecap="square"/>
</svg>
