<svg width="32" height="32" viewBox="0 0 32 32" fill="none" xmlns="http://www.w3.org/2000/svg">
  <path fill-rule="evenodd" clip-rule="evenodd" d="M0 16C0 7.16344 7.16344 0 16 0C24.8366 0 32 7.16344 32 16C32 24.8366 24.8366 32 16 32C7.16344 32 0 24.8366 0 16Z" fill="#FF6960" fill-opacity="0.1"/>
  <path d="M17 17L22 22" stroke="#FF6960" stroke-width="2"/>
  <path d="M22 17L17 22" stroke="#FF6960" stroke-width="2"/>
  <path d="M20 14.4444C20 10.9989 17.1581 9 14.5 9C11.8419 9 9 10.9989 9 14.4444C9 17.8044 14.5 22.4444 14.5 22.4444" stroke="#FF6960" stroke-width="2" stroke-miterlimit="10" stroke-linecap="square"/>
  <path d="M14.5001 16.9436C15.8501 16.9436 16.9446 15.8492 16.9446 14.4991C16.9446 13.1491 15.8501 12.0547 14.5001 12.0547C13.1501 12.0547 12.0557 13.1491 12.0557 14.4991C12.0557 15.8492 13.1501 16.9436 14.5001 16.9436Z" fill="#FF6960"/>
</svg>
