<svg width="48" height="48" viewBox="0 0 48 48" fill="none" xmlns="http://www.w3.org/2000/svg">
<path fill-rule="evenodd" clip-rule="evenodd" d="M13.93 12C13.4202 12 13.0069 12.4133 13.0069 12.9231C13.0069 13.4329 13.4202 13.8462 13.93 13.8462H18.0419V14.9371C18.0419 15.4469 18.4552 15.8601 18.965 15.8601C19.4748 15.8601 19.8881 15.4469 19.8881 14.9371V13.8462H23.9999C24.5097 13.8462 24.923 13.4329 24.923 12.9231C24.923 12.4133 24.5097 12 23.9999 12H18.965H13.93ZM12.9231 18.0419C12.4133 18.0419 12 18.4552 12 18.965V29.0349C12 29.5447 12.4133 29.958 12.9231 29.958H27.021C27.2445 29.958 27.4605 29.8768 27.6288 29.7296L35.6847 22.6806C35.8851 22.5054 36 22.2521 36 21.986V19.972C36 19.6877 35.869 19.4193 35.645 19.2444C35.4209 19.0695 35.1288 19.0075 34.853 19.0765L27.4282 20.9327L25.775 18.453C25.6038 18.1962 25.3156 18.0419 25.007 18.0419H12.9231ZM13.8462 28.1118V19.8881H24.513L26.2529 22.498C26.4693 22.8226 26.8664 22.9761 27.2448 22.8815L34.1538 21.1542V21.5671L26.6741 28.1118H13.8462ZM33.0628 29.035L33.7155 28.3823C33.355 28.0218 32.7705 28.0218 32.4101 28.3823C32.4102 28.3821 32.4101 28.3823 33.0628 29.035ZM33.0628 29.035L32.4101 28.3823L32.4084 28.3839L32.406 28.3863L32.3991 28.3933L32.3768 28.4162C32.3584 28.4352 32.3329 28.4618 32.3014 28.4956C32.2384 28.5631 32.151 28.6593 32.0472 28.7804C31.8406 29.0215 31.5648 29.3661 31.2877 29.7817C30.7536 30.5829 30.1257 31.7785 30.1257 33.0629C30.1257 33.8419 30.4352 34.5889 30.986 35.1398C31.5368 35.6906 32.2838 36 33.0628 36C33.8417 36 34.5888 35.6906 35.1396 35.1398C35.6904 34.5889 35.9998 33.8419 35.9998 33.0629C35.9998 31.7785 35.372 30.5829 34.8378 29.7817C34.5607 29.3661 34.285 29.0215 34.0783 28.7804C33.9746 28.6593 33.8871 28.5631 33.8241 28.4956C33.7926 28.4618 33.7671 28.4352 33.7487 28.4162L33.7265 28.3933L33.7195 28.3863L33.7171 28.3839L33.7162 28.383C33.716 28.3828 33.7155 28.3823 33.0628 29.035ZM33.3017 30.8057C33.2214 30.6852 33.1409 30.5716 33.0628 30.4663C32.9847 30.5716 32.9042 30.6852 32.8238 30.8057C32.351 31.515 31.9719 32.3334 31.9719 33.0629C31.9719 33.3523 32.0868 33.6297 32.2914 33.8343C32.496 34.0389 32.7735 34.1538 33.0628 34.1538C33.3521 34.1538 33.6296 34.0389 33.8342 33.8343C34.0387 33.6297 34.1537 33.3523 34.1537 33.0629C34.1537 32.3334 33.7746 31.515 33.3017 30.8057Z" fill="#00CC66"/>
<path opacity="0.2" d="M13 24H32.5L27 29H13V24Z" fill="#00CC66"/>
</svg>
