<svg width="48" height="48" viewBox="0 0 48 48" fill="none" xmlns="http://www.w3.org/2000/svg">
<path opacity="0.2" d="M32 35C33.1046 35 34 34.1046 34 33L34 27L14 27L14 33C14 34.1046 14.8954 35 16 35L32 35Z" fill="#00CC66"/>
<path fill-rule="evenodd" clip-rule="evenodd" d="M18.8692 11.9934C18.4772 11.6018 17.8419 11.6022 17.4505 11.9942L13.3791 16.0701C12.9876 16.4621 12.9879 17.0972 13.3799 17.4888C13.5758 17.6844 13.8328 17.7823 14.0889 17.7823C14.235 17.7823 14.3807 17.7502 14.5151 17.6868L14.8919 18.0641L15.2082 18.3805L14.2074 19.3332C13.6003 19.9112 13.2505 20.7156 13.2505 21.5433V31.9508C13.2505 34.3606 15.2885 36.3 17.7682 36.3H30.3969C32.8766 36.3 34.9146 34.3607 34.9146 31.9508V16.0564C34.9145 13.6466 32.8765 11.7072 30.3968 11.7072H23.5311C22.6858 11.7072 21.8857 12.0228 21.2813 12.5984L19.8739 13.9384L19.0672 13.1305C19.2426 12.7586 19.1774 12.3013 18.8692 11.9934ZM22.6648 14.0514C22.8876 13.8393 23.2038 13.7136 23.5312 13.7136H30.3969C31.799 13.7136 32.9082 14.782 32.9082 16.0564L32.9081 31.6508V31.9508C32.9081 33.2252 31.7991 34.2936 30.3968 34.2936H17.7681C16.366 34.2936 15.2568 33.2252 15.2568 31.9508V21.5433C15.2568 21.2629 15.3722 20.9944 15.5908 20.7864L22.6648 14.0514ZM16.6615 16.9967L15.9754 16.3099L17.6916 14.5918L18.4207 15.3219L16.6615 16.9967Z" fill="#00CC66"/>
<path fill-rule="evenodd" clip-rule="evenodd" d="M23.5066 15.3758C23.2623 15.3758 23.0273 15.4697 22.8502 15.6379L19.5687 18.7548C19.286 19.0234 19.1954 19.4371 19.3399 19.7993C19.4845 20.1615 19.8352 20.399 20.2252 20.399H29.082C30.4663 20.399 31.5918 19.2724 31.5918 17.8875C31.5918 16.5025 30.4663 15.3758 29.082 15.3758H23.5066ZM22.6127 18.4927L23.8872 17.2822H29.082C29.414 17.2822 29.6855 17.5534 29.6855 17.8875C29.6854 18.2214 29.414 18.4927 29.082 18.4927H22.6127Z" fill="#00CC66"/>
<path fill-rule="evenodd" clip-rule="evenodd" d="M24.9999 26.1765L21.2975 22.4741C20.9321 22.1086 20.3395 22.1087 19.9741 22.4741C19.6086 22.8395 19.6086 23.4321 19.9741 23.7976L23.6765 27.5L19.9741 31.2024C19.6086 31.5679 19.6086 32.1604 19.9741 32.5259C20.1567 32.7085 20.3967 32.8 20.6358 32.8C20.8748 32.8 21.1149 32.7085 21.2975 32.5259L24.9999 28.8234L28.7024 32.5259C28.8851 32.7086 29.1251 32.8 29.3641 32.8C29.603 32.8 29.8431 32.7086 30.0258 32.5259C30.3913 32.1604 30.3912 31.5679 30.0258 31.2024L26.3233 27.5L30.0258 23.7976C30.3912 23.4321 30.3912 22.8395 30.0258 22.4741C29.6603 22.1087 29.0678 22.1087 28.7023 22.4741L24.9999 26.1765Z" fill="#00CC66"/>
</svg>
