<svg width="16" height="16" viewBox="0 0 16 16" fill="none" xmlns="http://www.w3.org/2000/svg">
<path fill-rule="evenodd" clip-rule="evenodd" d="M8.54994 0.000122727H8.50449C7.58491 -0.00760049 6.69966 0.349468 6.04275 0.993236C5.38456 1.63826 5.0095 2.5183 5.00005 3.43981L5 3.43981V3.45006V6H3H2V7V15V16H3H13H14V15V7V6H13H7V3.45585C7.00517 3.06626 7.16425 2.69445 7.44261 2.42166C7.72203 2.14783 8.09877 1.99618 8.48999 2.00007L8.48999 2.00012H8.49994H8.54416C8.93374 2.0053 9.30555 2.16437 9.57834 2.44273C9.85217 2.72215 10.0038 3.0989 9.99993 3.49011L9.98998 4.49006L11.9899 4.50996L11.9998 3.51001C12.009 2.58849 11.6518 1.70106 11.0068 1.04287C10.3617 0.384681 9.4817 0.00962263 8.56019 0.000175298L8.56019 0.000122727H8.54994ZM4 8V14H12V8H4ZM8 13C9.10457 13 10 12.1046 10 11C10 9.89543 9.10457 9 8 9C6.89543 9 6 9.89543 6 11C6 12.1046 6.89543 13 8 13Z" fill="currentColor"/>
</svg>
