<svg width="12" height="12" viewBox="0 0 12 12" fill="none" xmlns="http://www.w3.org/2000/svg">
<path d="M11.25 3H0.75C0.3 3 0 3.3 0 3.75V11.25C0 11.7 0.3 12 0.75 12H11.25C11.7 12 12 11.7 12 11.25V3.75C12 3.3 11.7 3 11.25 3ZM8.325 10.5H3.675L1.5 8.325V6.675L3.675 4.5H8.4L10.575 6.675V8.4L8.325 10.5Z" fill="currentColor"/>
<path d="M6 9C6.82843 9 7.5 8.32843 7.5 7.5C7.5 6.67157 6.82843 6 6 6C5.17157 6 4.5 6.67157 4.5 7.5C4.5 8.32843 5.17157 9 6 9Z" fill="currentColor"/>
<path d="M10.5 0H1.5V1.5H10.5V0Z" fill="currentColor"/>
</svg>
