<svg width="17" height="16" viewBox="0 0 17 16" fill="none" xmlns="http://www.w3.org/2000/svg">
<path d="M10.7056 9.45715L9.27829 10.8652C8.53397 10.4164 7.8425 9.88525 7.21696 9.28182C6.61446 8.65523 6.08343 7.96366 5.63363 7.21982L7.04029 5.79249C7.12549 5.70597 7.18303 5.59607 7.20558 5.47676C7.22814 5.35745 7.21469 5.23413 7.16696 5.12249L5.70029 1.70382C5.64235 1.56902 5.53791 1.45952 5.406 1.39528C5.27408 1.33104 5.12348 1.31632 4.98163 1.35382L2.29229 2.06515C2.15799 2.09997 2.03949 2.17934 1.95616 2.29027C1.87284 2.40121 1.82964 2.53714 1.83363 2.67582C2.00474 5.80367 3.30526 8.76311 5.49363 11.0045C7.73541 13.1935 10.6957 14.4943 13.8243 14.6652C13.9631 14.6698 14.0994 14.627 14.2105 14.5437C14.3217 14.4604 14.4011 14.3417 14.4356 14.2072L15.1463 11.5165C15.184 11.3747 15.1694 11.2241 15.1053 11.0922C15.0412 10.9602 14.9317 10.8558 14.797 10.7978L11.3776 9.33182C11.2659 9.28339 11.1422 9.26945 11.0225 9.29178C10.9027 9.31411 10.7924 9.3717 10.7056 9.45715V9.45715Z" stroke="#00CC66" stroke-miterlimit="10" stroke-linecap="square"/>
</svg>
