<svg width="32" height="34" viewBox="0 0 32 34" fill="none" xmlns="http://www.w3.org/2000/svg">
<path d="M15.1452 21.7996C9.19165 21.7996 5.26144 23.0422 3.14509 23.9787C1.98751 24.4918 1.25 25.6373 1.25 26.9013V32.466H15.1452" stroke="currentColor" stroke-width="2" stroke-miterlimit="10" stroke-linecap="square"/>
<path d="M15.1458 16.9997C11.3089 16.9997 8.19824 13.8477 8.19824 9.95981V8.03985C8.19824 4.15193 11.3089 1 15.1458 1C18.9828 1 22.0935 4.15193 22.0935 8.03985V9.95981C22.0935 13.8477 18.9828 16.9997 15.1458 16.9997Z" stroke="currentColor" stroke-width="2" stroke-miterlimit="10" stroke-linecap="square"/>
<path d="M28.5445 22.4751C29.499 23.2443 30.191 24.2899 30.5252 25.4679C30.8594 26.6459 30.8194 27.8984 30.4106 29.0527C30.0018 30.2071 29.2445 31.2065 28.2428 31.9135C27.2412 32.6204 26.0445 33 24.8176 33C23.5908 33 22.3941 32.6204 21.3924 31.9135C20.3908 31.2065 19.6334 30.2071 19.2247 29.0527C18.8159 27.8984 18.7759 26.6459 19.1101 25.4679C19.4443 24.2899 20.1363 23.2443 21.0908 22.4751" stroke="currentColor" stroke-width="2" stroke-miterlimit="10" stroke-linecap="square"/>
<path d="M24.8203 19.8442V25.1061" stroke="currentColor" stroke-width="2" stroke-miterlimit="10" stroke-linecap="square"/>
</svg>
