<svg width="12" height="12" viewBox="0 0 12 12" fill="none" xmlns="http://www.w3.org/2000/svg">
  <g clip-path="url(#clip0)">
    <circle cx="6.5" cy="6" r="5.5" stroke="#747B83"/>
    <path d="M5.84884 7.07796C5.84884 6.69064 5.9 6.38194 6.00233 6.15188C6.10465 5.92182 6.3062 5.66991 6.60698 5.39617C6.91085 5.11951 7.1031 4.92294 7.18372 4.80645C7.30775 4.62881 7.36977 4.4366 7.36977 4.22984C7.36977 3.95609 7.2969 3.74787 7.15116 3.60517C7.00853 3.45957 6.79767 3.38676 6.5186 3.38676C6.25194 3.38676 6.03643 3.45811 5.87209 3.60081C5.71085 3.74059 5.63023 3.93134 5.63023 4.17305H4.5C4.5062 3.65759 4.69225 3.24989 5.05814 2.94993C5.42713 2.64998 5.91395 2.5 6.5186 2.5C7.14186 2.5 7.62713 2.64852 7.97442 2.94556C8.32481 3.24261 8.5 3.65759 8.5 4.19052C8.5 4.66521 8.26434 5.13262 7.79302 5.59274L7.22093 6.1213C7.01628 6.33972 6.91085 6.6586 6.90465 7.07796H5.84884ZM5.76977 8.43649C5.76977 8.26467 5.82713 8.12634 5.94186 8.02151C6.05659 7.91375 6.21163 7.85988 6.40698 7.85988C6.60543 7.85988 6.76202 7.91521 6.87674 8.02587C6.99147 8.13362 7.04884 8.2705 7.04884 8.43649C7.04884 8.59666 6.99302 8.73062 6.8814 8.83837C6.76977 8.94612 6.61163 9 6.40698 9C6.20233 9 6.04419 8.94612 5.93256 8.83837C5.82403 8.73062 5.76977 8.59666 5.76977 8.43649Z" fill="#747B83"/>
  </g>
  <defs>
    <clipPath id="clip0">
      <rect width="12" height="12" fill="white" transform="translate(0.5)"/>
    </clipPath>
  </defs>
</svg>

