<svg width="48" height="48" viewBox="0 0 48 48" fill="none" xmlns="http://www.w3.org/2000/svg">
<path d="M32.625 12H15.375C13.514 12 12 13.514 12 15.375V32.625C12 34.486 13.514 36 15.375 36H32.625C34.486 36 36 34.486 36 32.625V15.375C36 13.514 34.486 12 32.625 12ZM34.5 32.625C34.5 33.6589 33.6589 34.5 32.625 34.5H15.375C14.3411 34.5 13.5 33.6589 13.5 32.625V15.375C13.5 14.3411 14.3411 13.5 15.375 13.5H32.625C33.6589 13.5 34.5 14.3411 34.5 15.375V32.625Z" fill="#00CC66"/>
<path opacity="0.2" d="M33 35C34.1046 35 35 34.1046 35 33L35 26L13 26L13 33C13 34.1046 13.8954 35 15 35L33 35Z" fill="#00CC66"/>
<path d="M32 17C32.5523 17 33 16.5523 33 16C33 15.4477 32.5523 15 32 15C31.4477 15 31 15.4477 31 16C31 16.5523 31.4477 17 32 17Z" fill="#00CC66"/>
<path d="M16 17C16.5523 17 17 16.5523 17 16C17 15.4477 16.5523 15 16 15C15.4477 15 15 15.4477 15 16C15 16.5523 15.4477 17 16 17Z" fill="#00CC66"/>
<path d="M32 33C32.5523 33 33 32.5523 33 32C33 31.4477 32.5523 31 32 31C31.4477 31 31 31.4477 31 32C31 32.5523 31.4477 33 32 33Z" fill="#00CC66"/>
<path d="M16 33C16.5523 33 17 32.5523 17 32C17 31.4477 16.5523 31 16 31C15.4477 31 15 31.4477 15 32C15 32.5523 15.4477 33 16 33Z" fill="#00CC66"/>
<path fill-rule="evenodd" clip-rule="evenodd" d="M24 31.5C28.1421 31.5 31.5 28.1421 31.5 24C31.5 19.8579 28.1421 16.5 24 16.5C19.8579 16.5 16.5 19.8579 16.5 24C16.5 28.1421 19.8579 31.5 24 31.5ZM24 33C28.9706 33 33 28.9706 33 24C33 19.0294 28.9706 15 24 15C19.0294 15 15 19.0294 15 24C15 28.9706 19.0294 33 24 33Z" fill="#00CC66"/>
<path fill-rule="evenodd" clip-rule="evenodd" d="M24.6252 18.375V29.625H23.3752V18.375H24.6252Z" fill="#00CC66"/>
<path fill-rule="evenodd" clip-rule="evenodd" d="M22.6166 18.5706L24.0001 19.9391L25.3836 18.5706L26.2626 19.4594L24.0001 21.6972L21.7375 19.4594L22.6166 18.5706Z" fill="#00CC66"/>
<path fill-rule="evenodd" clip-rule="evenodd" d="M24.0001 26.3027L26.2626 28.5406L25.3836 29.4293L24.0001 28.0609L22.6166 29.4293L21.7375 28.5406L24.0001 26.3027Z" fill="#00CC66"/>
<path fill-rule="evenodd" clip-rule="evenodd" d="M19.4024 20.647L29.2188 26.2682L28.5976 27.3529L18.7812 21.7318L19.4024 20.647Z" fill="#00CC66"/>
<path fill-rule="evenodd" clip-rule="evenodd" d="M21.1308 19.7786L21.9644 22.852L18.8687 23.6735L18.5481 22.4653L20.429 21.9662L19.9243 20.1059L21.1308 19.7786Z" fill="#00CC66"/>
<path fill-rule="evenodd" clip-rule="evenodd" d="M29.4517 25.5347L27.5708 26.0338L28.0755 27.8941L26.8691 28.2214L26.0354 25.148L29.1311 24.3265L29.4517 25.5347Z" fill="#00CC66"/>
<path fill-rule="evenodd" clip-rule="evenodd" d="M29.2188 21.7318L19.4024 27.3529L18.7812 26.2682L28.5976 20.647L29.2188 21.7318Z" fill="#00CC66"/>
<path fill-rule="evenodd" clip-rule="evenodd" d="M28.0755 20.1058L27.5708 21.9661L29.4517 22.4653L29.1311 23.6734L26.0354 22.852L26.8691 19.7786L28.0755 20.1058Z" fill="#00CC66"/>
<path fill-rule="evenodd" clip-rule="evenodd" d="M18.8687 24.3265L21.9644 25.148L21.1308 28.2214L19.9243 27.8941L20.429 26.0338L18.5481 25.5347L18.8687 24.3265Z" fill="#00CC66"/>
</svg>
