<svg viewBox="0 0 13 12" fill="none" xmlns="http://www.w3.org/2000/svg">
  <path d="M9.10298 4.58898L7.9048 3.39407L9.10298 2.19915C8.85336 2.04979 8.55381 2 8.25427 2C7.00616 2 6.00767 2.99576 6.00767 4.24046C6.00767 4.4894 6.0576 4.68855 6.10752 4.93749L2.81251 7.37711C2.41312 7.67584 2.41312 8.22351 2.71267 8.57202L3.86093 9.76694C4.2104 10.1155 4.75956 10.0657 5.05911 9.66736L7.5054 6.38135C7.75502 6.43114 8.00464 6.48092 8.25427 6.48092C9.50237 6.48092 10.5009 5.48516 10.5009 4.24046C10.5009 3.94173 10.4509 3.64301 10.3511 3.39407L9.10298 4.58898Z" fill="currentColor"/>
</svg>
