<svg width="30" height="32" viewBox="0 0 30 32" fill="none" xmlns="http://www.w3.org/2000/svg">
    <path d="M25 10.545c0 5.891-10 16.418-10 16.418S5 16.437 5 10.545C5 4.505 10.168 1 15 1s10 3.505 10 9.545Z" stroke="currentColor" stroke-width="2" stroke-miterlimit="10" stroke-linecap="square"/>
    <path d="M15 14a3 3 0 1 0 0-6 3 3 0 0 0 0 6ZM7 23.717C3.373 24.44 1 25.641 1 27c0 2.209 6.268 4 14 4s14-1.791 14-4c0-1.359-2.373-2.56-6-3.283" stroke="currentColor" stroke-width="2" stroke-miterlimit="10" stroke-linecap="square"/>
</svg>