<svg width="40" height="40" viewBox="0 0 40 40" fill="none" xmlns="http://www.w3.org/2000/svg">
    <path d="M30.508 20c0-.73-.073-1.459-.218-2.175L34 15.1l-3.002-5.2-4.23 1.854a10.964 10.964 0 0 0-3.757-2.172L22.502 5h-6.004l-.51 4.582a10.964 10.964 0 0 0-3.756 2.172L8.002 9.9 5 15.1l3.71 2.727a11.002 11.002 0 0 0 0 4.35L5 24.9l3.002 5.2 4.23-1.852a10.964 10.964 0 0 0 3.757 2.172l.509 4.58h6.004" stroke="currentColor" stroke-width="2" stroke-miterlimit="10" stroke-linecap="square"/>
    <path d="M13.366 18.365 17 21.999l4-4-3.634-3.635a6.49 6.49 0 0 1 8.369 7.966l8.613 6.154a2 2 0 0 1 .066 2.892l-3.038 3.038a2 2 0 0 1-2.892-.066l-7.153-7.615a6.487 6.487 0 0 1-7.965-8.368Z" stroke="currentColor" stroke-width="2" stroke-miterlimit="10" stroke-linecap="square"/>
</svg>