<svg width="16" height="16" viewBox="0 0 16 16" fill="none" xmlns="http://www.w3.org/2000/svg">
<path d="M14.165 1.01398L8 0L1.835 1.01398C1.60168 1.05301 1.38976 1.17349 1.23688 1.35402C1.084 1.53454 1.00007 1.76342 1 1.99998V8.99998C1 14 8 16 8 16C8 16 15 14 15 8.99998V1.99998C14.9999 1.76342 14.916 1.53454 14.7631 1.35402C14.6102 1.17349 14.3983 1.05301 14.165 1.01398Z" fill="white"/>
<path fill-rule="evenodd" clip-rule="evenodd" d="M8 0L14.165 1.01398C14.3983 1.05301 14.6102 1.17349 14.7631 1.35402C14.916 1.53454 14.9999 1.76342 15 1.99998V8.99998C15 14 8 16 8 16C8 16 1 14 1 8.99998V1.99998C1.00007 1.76342 1.084 1.53454 1.23688 1.35402C1.38976 1.17349 1.60168 1.05301 1.835 1.01398L8 0ZM10.472 11L8 9.42947L5.528 11L6.184 8.04L4 6.04842L6.876 5.79158L8 3L9.124 5.79158L12 6.04842L9.816 8.04L10.472 11Z" fill="currentColor"/>
</svg>
