<svg width="12" height="12" viewBox="0 0 12 12" fill="none" xmlns="http://www.w3.org/2000/svg">
<path d="M6 0C2.69165 0 0 2.69165 0 6C0 9.30835 2.69165 12 6 12C9.30835 12 12 9.30835 12 6C12 2.69165 9.30835 0 6 0ZM6 1.5C7.66136 1.5 9.11165 2.4072 9.89117 3.75H2.10883C2.88835 2.4072 4.33864 1.5 6 1.5ZM1.5 6C1.5 5.9865 1.50188 5.9735 1.50201 5.96004C3.32103 6.70999 4.65573 8.37053 4.96568 10.3753C2.98201 9.90623 1.5 8.12503 1.5 6ZM6 6.75C5.58577 6.75 5.25 6.41418 5.25 6C5.25 5.58577 5.58577 5.25 6 5.25C6.41423 5.25 6.75 5.58577 6.75 6C6.75 6.41418 6.41423 6.75 6 6.75ZM7.03432 10.3753C7.34427 8.37053 8.67897 6.70999 10.498 5.96004C10.4981 5.9735 10.5 5.9865 10.5 6C10.5 8.12503 9.01799 9.90623 7.03432 10.3753Z" fill="#747B83"/>
</svg>
