<svg width="48" height="48" viewBox="0 0 48 48" fill="none" xmlns="http://www.w3.org/2000/svg">
<path opacity="0.2" d="M13.2942 31.5002H34.706V34.8753L13.2942 35.2503V31.5002Z" fill="#00CC66"/>
<path fill-rule="evenodd" clip-rule="evenodd" d="M24 13.5002C17.665 13.5002 12.5294 18.537 12.5294 24.7502C12.5294 27.0978 13.2617 29.2753 14.5143 31.0779C14.7522 31.4201 14.6621 31.8867 14.3131 32.12C13.9641 32.3533 13.4884 32.2649 13.2506 31.9226C11.8303 29.8789 11 27.4085 11 24.7502C11 17.7086 16.8203 12.0002 24 12.0002C31.1797 12.0002 37 17.7086 37 24.7502C37 27.4085 36.1697 29.8789 34.7494 31.9226C34.5116 32.2649 34.0359 32.3533 33.6869 32.12C33.3379 31.8867 33.2478 31.4201 33.4857 31.0779C34.7383 29.2753 35.4706 27.0978 35.4706 24.7502C35.4706 18.537 30.335 13.5002 24 13.5002Z" fill="#00CC66"/>
<path fill-rule="evenodd" clip-rule="evenodd" d="M24 20.2502C21.466 20.2502 19.4117 22.265 19.4117 24.7502C19.4117 27.2355 21.466 29.2502 24 29.2502C26.534 29.2502 28.5882 27.2355 28.5882 24.7502C28.5882 22.265 26.534 20.2502 24 20.2502ZM17.8823 24.7502C17.8823 21.4365 20.6213 18.7502 24 18.7502C27.3787 18.7502 30.1176 21.4365 30.1176 24.7502C30.1176 28.064 27.3787 30.7502 24 30.7502C20.6213 30.7502 17.8823 28.064 17.8823 24.7502Z" fill="#00CC66"/>
<path fill-rule="evenodd" clip-rule="evenodd" d="M27.1094 23.4202L23.259 27.1304L20.9402 24.9929L21.9569 23.89L23.2362 25.0693L26.0686 22.3401L27.1094 23.4202Z" fill="#00CC66"/>
<path fill-rule="evenodd" clip-rule="evenodd" d="M14.4411 32.2502C13.8076 32.2502 13.2941 32.7539 13.2941 33.3752C13.2941 33.9966 13.8076 34.5002 14.4411 34.5002H33.5588C34.1923 34.5002 34.7058 33.9966 34.7058 33.3752C34.7058 32.7539 34.1923 32.2502 33.5588 32.2502H31.4999C31.0776 32.2502 30.7352 31.9145 30.7352 31.5002C30.7352 31.086 31.0776 30.7502 31.4999 30.7502H33.5588C35.0369 30.7502 36.2352 31.9255 36.2352 33.3752C36.2352 34.825 35.0369 36.0002 33.5588 36.0002H14.4411C12.9629 36.0002 11.7646 34.825 11.7646 33.3752C11.7646 31.9255 12.9629 30.7502 14.4411 30.7502H16.4999C16.9223 30.7502 17.2646 31.086 17.2646 31.5002C17.2646 31.9145 16.9223 32.2502 16.4999 32.2502H14.4411Z" fill="#00CC66"/>
<path fill-rule="evenodd" clip-rule="evenodd" d="M11 24.7502C11 24.336 11.3424 24.0002 11.7647 24.0002H13.2941C13.7165 24.0002 14.0588 24.336 14.0588 24.7502C14.0588 25.1645 13.7165 25.5002 13.2941 25.5002H11.7647C11.3424 25.5002 11 25.1645 11 24.7502Z" fill="#00CC66"/>
<path fill-rule="evenodd" clip-rule="evenodd" d="M33.9412 24.7502C33.9412 24.336 34.2835 24.0002 34.7059 24.0002L36.2353 24.0002C36.6576 24.0002 37 24.336 37 24.7502C37 25.1645 36.6576 25.5002 36.2353 25.5002L34.7059 25.5002C34.2835 25.5002 33.9412 25.1645 33.9412 24.7502Z" fill="#00CC66"/>
<path fill-rule="evenodd" clip-rule="evenodd" d="M24.0001 15.0002C23.5777 15.0002 23.2354 14.6645 23.2354 14.2502L23.2354 12.7502C23.2354 12.336 23.5777 12.0002 24.0001 12.0002C24.4224 12.0002 24.7648 12.336 24.7648 12.7502L24.7648 14.2502C24.7648 14.6645 24.4224 15.0002 24.0001 15.0002Z" fill="#00CC66"/>
<path fill-rule="evenodd" clip-rule="evenodd" d="M31.3464 17.5455C31.0478 17.2526 31.0478 16.7777 31.3464 16.4848L32.1111 15.7348C32.4097 15.4419 32.8939 15.4419 33.1926 15.7348C33.4912 16.0277 33.4912 16.5026 33.1926 16.7955L32.4279 17.5455C32.1292 17.8384 31.645 17.8384 31.3464 17.5455Z" fill="#00CC66"/>
<path fill-rule="evenodd" clip-rule="evenodd" d="M16.6538 17.5455C16.3551 17.8384 15.8709 17.8384 15.5723 17.5455L14.8076 16.7955C14.509 16.5026 14.509 16.0277 14.8076 15.7348C15.1062 15.4419 15.5904 15.4419 15.8891 15.7348L16.6538 16.4848C16.9524 16.7777 16.9524 17.2526 16.6538 17.5455Z" fill="#00CC66"/>
</svg>
