<svg width="48" height="48" viewBox="0 0 48 48" fill="none" xmlns="http://www.w3.org/2000/svg">
<path opacity="0.2" d="M10.9424 23.7158L35.5861 23.6298V29.7065H25.655L24.1838 28.4445L22.7125 27.7038L19.4022 29.7065L16.0918 27.7038L14.2527 28.0741L13.1493 29.7065H10.9424V23.7158Z" fill="#00CC66"/>
<path fill-rule="evenodd" clip-rule="evenodd" d="M10.1376 14C9.73132 14 9.40197 14.3316 9.40197 14.7407V29.3734H8.73563C8.32935 29.3734 8 29.705 8 30.1141C8 30.5232 8.32935 30.8549 8.73563 30.8549H12.4553C12.7227 32.6353 14.249 33.9999 16.0918 33.9999C17.5479 33.9999 18.8063 33.148 19.4024 31.9122C19.9984 33.148 21.2568 33.9999 22.7129 33.9999C24.5557 33.9999 26.082 32.6353 26.3495 30.8549H35.729H39.2644C39.6706 30.8549 40 30.5232 40 30.1141C40 29.705 39.6706 29.3734 39.2644 29.3734H36.4646V15.4815C36.4646 14.6633 35.8059 14 34.9933 14H10.1376ZM19.4024 28.6802C19.9984 27.4444 21.2568 26.5925 22.7129 26.5925C24.4278 26.5925 25.8687 27.7744 26.2759 29.3734H34.9933V24.3704L27.8616 24.3704C27.4553 24.3704 27.126 24.0388 27.126 23.6297C27.126 23.2206 27.4553 22.8889 27.8616 22.8889L34.9933 22.8889V15.4815H10.8732V29.3734H12.5288C12.936 27.7744 14.3769 26.5925 16.0918 26.5925C17.5479 26.5925 18.8063 27.4444 19.4024 28.6802ZM22.7129 28.074C21.494 28.074 20.506 29.0689 20.506 30.2962C20.506 31.5235 21.494 32.5185 22.7129 32.5185C23.9317 32.5185 24.9198 31.5235 24.9198 30.2962C24.9198 29.0689 23.9317 28.074 22.7129 28.074ZM13.8849 30.2962C13.8849 29.0689 14.873 28.074 16.0918 28.074C17.3107 28.074 18.2987 29.0689 18.2987 30.2962C18.2987 31.5235 17.3107 32.5185 16.0918 32.5185C14.873 32.5185 13.8849 31.5235 13.8849 30.2962Z" fill="#00CC66"/>
<path d="M0 0V-1H-1V0H0ZM48 0H49V-1H48V0ZM48 48V49H49V48H48ZM0 48H-1V49H0V48ZM0 1H48V-1H0V1ZM47 0V48H49V0H47ZM48 47H0V49H48V47ZM1 48V0H-1V48H1Z" fill="#F2F4F8"/>
</svg>
