<svg width="48" height="48" viewBox="0 0 48 48" fill="none" xmlns="http://www.w3.org/2000/svg">
<path opacity="0.2" d="M24 13C17.9249 13 13 17.9249 13 24C13 30.0751 17.9249 35 24 35L24 13Z" fill="#00CC66"/>
<path fill-rule="evenodd" clip-rule="evenodd" d="M24 13.8462C18.3922 13.8462 13.8462 18.3922 13.8462 24C13.8462 29.6078 18.3922 34.1538 24 34.1538C29.6078 34.1538 34.1538 29.6078 34.1538 24C34.1538 18.3922 29.6078 13.8462 24 13.8462ZM12 24C12 17.3726 17.3726 12 24 12C30.6274 12 36 17.3726 36 24C36 30.6274 30.6274 36 24 36C17.3726 36 12 30.6274 12 24Z" fill="#00CC66"/>
<path fill-rule="evenodd" clip-rule="evenodd" d="M24.1178 18.7098C23.3312 18.6382 22.4043 18.787 21.5945 19.1343C21.1259 19.3352 20.5832 19.1182 20.3823 18.6497C20.1814 18.1812 20.3984 17.6385 20.8669 17.4375C21.9407 16.9771 23.1743 16.7701 24.2853 16.8713C25.3697 16.9701 26.5272 17.3877 27.1626 18.3855C27.7344 19.2833 27.8219 20.2758 27.5269 21.2098C27.2405 22.1165 26.6097 22.9301 25.8011 23.5949C24.3509 24.7872 24.1963 25.1722 24.1963 25.6151C24.1963 26.1249 23.783 26.5382 23.2732 26.5382C22.7634 26.5382 22.3501 26.1249 22.3501 25.6151C22.3501 24.212 23.2248 23.3231 24.6286 22.1689C25.247 21.6605 25.6169 21.1273 25.7665 20.6538C25.9074 20.2076 25.866 19.7863 25.6054 19.3771C25.4084 19.0678 24.9311 18.7839 24.1178 18.7098Z" fill="#00CC66"/>
<path d="M23.2732 30.2305C24.0613 30.2305 24.7002 29.6106 24.7002 28.8459C24.7002 28.0812 24.0613 27.4613 23.2732 27.4613C22.4851 27.4613 21.8462 28.0812 21.8462 28.8459C21.8462 29.6106 22.4851 30.2305 23.2732 30.2305Z" fill="#00CC66"/>
</svg>
